<svg width="593" height="130" viewBox="0 0 593 130" fill="none" xmlns="http://www.w3.org/2000/svg">
<g filter="url(#filter0_d_107_46)">
<mask id="path-1-outside-1_107_46" maskUnits="userSpaceOnUse" x="4" y="0" width="585" height="122" fill="black">
<rect fill="white" x="4" width="585" height="122"/>
<path d="M127.472 15.4L109.552 105H79.856L92.784 38.824H65.52L52.592 105H22.896L40.816 15.4H127.472ZM134.484 34.984H163.284L156.5 66.6L187.092 34.984H214.1L200.02 105H171.22L178.004 73.256L147.54 105H120.404L134.484 34.984ZM338.841 34.984L324.761 105H209.689L223.769 34.984H252.569L243.353 82.344H257.817L267.033 34.984H295.833L286.617 82.344H300.953L310.169 34.984H338.841ZM348.554 34.984H377.354L370.57 66.6L401.162 34.984H428.17L414.09 105H385.29L392.074 73.256L361.61 105H334.474L348.554 34.984ZM499.535 57.512H477.903L468.687 105H439.887L449.103 57.512H427.983L432.591 34.984H504.143L499.535 57.512ZM573.708 64.552C573.708 68.392 573.196 72.4453 572.172 76.712H523.148C523.745 79.6133 525.153 81.704 527.372 82.984C529.591 84.264 532.663 84.904 536.588 84.904C542.391 84.904 547.468 83.2827 551.82 80.04L563.852 97.576C555.319 103.379 545.121 106.28 533.26 106.28C525.665 106.28 518.924 104.957 513.036 102.312C507.233 99.6667 502.711 95.912 499.468 91.048C496.311 86.184 494.732 80.4667 494.732 73.896C494.732 66.216 496.524 59.3467 500.108 53.288C503.777 47.144 508.897 42.3653 515.468 38.952C522.039 35.4533 529.591 33.704 538.124 33.704C545.463 33.704 551.82 35.0267 557.196 37.672C562.572 40.232 566.668 43.8587 569.484 48.552C572.3 53.16 573.708 58.4933 573.708 64.552ZM536.844 53.416C533.687 53.416 531.041 54.2693 528.908 55.976C526.86 57.5973 525.324 59.8587 524.3 62.76H547.212C547.212 59.8587 546.273 57.5973 544.396 55.976C542.519 54.2693 540.001 53.416 536.844 53.416Z"/>
</mask>
<path d="M127.472 15.4L109.552 105H79.856L92.784 38.824H65.52L52.592 105H22.896L40.816 15.4H127.472ZM134.484 34.984H163.284L156.5 66.6L187.092 34.984H214.1L200.02 105H171.22L178.004 73.256L147.54 105H120.404L134.484 34.984ZM338.841 34.984L324.761 105H209.689L223.769 34.984H252.569L243.353 82.344H257.817L267.033 34.984H295.833L286.617 82.344H300.953L310.169 34.984H338.841ZM348.554 34.984H377.354L370.57 66.6L401.162 34.984H428.17L414.09 105H385.29L392.074 73.256L361.61 105H334.474L348.554 34.984ZM499.535 57.512H477.903L468.687 105H439.887L449.103 57.512H427.983L432.591 34.984H504.143L499.535 57.512ZM573.708 64.552C573.708 68.392 573.196 72.4453 572.172 76.712H523.148C523.745 79.6133 525.153 81.704 527.372 82.984C529.591 84.264 532.663 84.904 536.588 84.904C542.391 84.904 547.468 83.2827 551.82 80.04L563.852 97.576C555.319 103.379 545.121 106.28 533.26 106.28C525.665 106.28 518.924 104.957 513.036 102.312C507.233 99.6667 502.711 95.912 499.468 91.048C496.311 86.184 494.732 80.4667 494.732 73.896C494.732 66.216 496.524 59.3467 500.108 53.288C503.777 47.144 508.897 42.3653 515.468 38.952C522.039 35.4533 529.591 33.704 538.124 33.704C545.463 33.704 551.82 35.0267 557.196 37.672C562.572 40.232 566.668 43.8587 569.484 48.552C572.3 53.16 573.708 58.4933 573.708 64.552ZM536.844 53.416C533.687 53.416 531.041 54.2693 528.908 55.976C526.86 57.5973 525.324 59.8587 524.3 62.76H547.212C547.212 59.8587 546.273 57.5973 544.396 55.976C542.519 54.2693 540.001 53.416 536.844 53.416Z" fill="white"/>
<path d="M127.472 15.4L142.181 18.3417L145.769 0.399994H127.472V15.4ZM109.552 105V120H121.849L124.261 107.942L109.552 105ZM79.856 105L65.1343 102.124L61.6421 120H79.856V105ZM92.784 38.824L107.506 41.7L110.998 23.824H92.784V38.824ZM65.52 38.824V23.824H53.1668L50.7983 35.948L65.52 38.824ZM52.592 105V120H64.9452L67.3137 107.876L52.592 105ZM22.896 105L8.18729 102.058L4.59894 120H22.896V105ZM40.816 15.4V0.399994H28.5189L26.1073 12.4583L40.816 15.4ZM127.472 15.4L112.763 12.4583L94.8433 102.058L109.552 105L124.261 107.942L142.181 18.3417L127.472 15.4ZM109.552 105V90H79.856V105V120H109.552V105ZM79.856 105L94.5777 107.876L107.506 41.7L92.784 38.824L78.0623 35.948L65.1343 102.124L79.856 105ZM92.784 38.824V23.824H65.52V38.824V53.824H92.784V38.824ZM65.52 38.824L50.7983 35.948L37.8703 102.124L52.592 105L67.3137 107.876L80.2417 41.7L65.52 38.824ZM52.592 105V90H22.896V105V120H52.592V105ZM22.896 105L37.6047 107.942L55.5247 18.3417L40.816 15.4L26.1073 12.4583L8.18729 102.058L22.896 105ZM40.816 15.4V30.4H127.472V15.4V0.399994H40.816V15.4ZM134.484 34.984V19.984H122.2L119.778 32.0267L134.484 34.984ZM163.284 34.984L177.95 38.131L181.844 19.984H163.284V34.984ZM156.5 66.6L141.834 63.453L130.84 114.691L167.28 77.0306L156.5 66.6ZM187.092 34.984V19.984H180.734L176.312 24.5534L187.092 34.984ZM214.1 34.984L228.806 37.9412L232.417 19.984H214.1V34.984ZM200.02 105V120H212.304L214.726 107.957L200.02 105ZM171.22 105L156.551 101.865L152.676 120H171.22V105ZM178.004 73.256L192.673 76.3909L203.693 24.8241L167.181 62.8698L178.004 73.256ZM147.54 105V120H153.935L158.363 115.386L147.54 105ZM120.404 105L105.698 102.043L102.087 120H120.404V105ZM134.484 34.984V49.984H163.284V34.984V19.984H134.484V34.984ZM163.284 34.984L148.618 31.837L141.834 63.453L156.5 66.6L171.166 69.747L177.95 38.131L163.284 34.984ZM156.5 66.6L167.28 77.0306L197.872 45.4146L187.092 34.984L176.312 24.5534L145.72 56.1694L156.5 66.6ZM187.092 34.984V49.984H214.1V34.984V19.984H187.092V34.984ZM214.1 34.984L199.394 32.0267L185.314 102.043L200.02 105L214.726 107.957L228.806 37.9412L214.1 34.984ZM200.02 105V90H171.22V105V120H200.02V105ZM171.22 105L185.889 108.135L192.673 76.3909L178.004 73.256L163.335 70.1211L156.551 101.865L171.22 105ZM178.004 73.256L167.181 62.8698L136.717 94.6138L147.54 105L158.363 115.386L188.827 83.6422L178.004 73.256ZM147.54 105V90H120.404V105V120H147.54V105ZM120.404 105L135.11 107.957L149.19 37.9412L134.484 34.984L119.778 32.0267L105.698 102.043L120.404 105ZM338.841 34.984L353.547 37.9412L357.158 19.984H338.841V34.984ZM324.761 105V120H337.045L339.467 107.957L324.761 105ZM209.689 105L194.983 102.043L191.372 120H209.689V105ZM223.769 34.984V19.984H211.485L209.063 32.0267L223.769 34.984ZM252.569 34.984L267.293 37.8492L270.769 19.984H252.569V34.984ZM243.353 82.344L228.629 79.4788L225.153 97.344H243.353V82.344ZM257.817 82.344V97.344H270.179L272.541 85.2092L257.817 82.344ZM267.033 34.984V19.984H254.671L252.309 32.1188L267.033 34.984ZM295.833 34.984L310.557 37.8492L314.033 19.984H295.833V34.984ZM286.617 82.344L271.893 79.4788L268.417 97.344H286.617V82.344ZM300.953 82.344V97.344H313.315L315.677 85.2092L300.953 82.344ZM310.169 34.984V19.984H297.807L295.445 32.1188L310.169 34.984ZM338.841 34.984L324.135 32.0267L310.055 102.043L324.761 105L339.467 107.957L353.547 37.9412L338.841 34.984ZM324.761 105V90H209.689V105V120H324.761V105ZM209.689 105L224.395 107.957L238.475 37.9412L223.769 34.984L209.063 32.0267L194.983 102.043L209.689 105ZM223.769 34.984V49.984H252.569V34.984V19.984H223.769V34.984ZM252.569 34.984L237.845 32.1188L228.629 79.4788L243.353 82.344L258.077 85.2092L267.293 37.8492L252.569 34.984ZM243.353 82.344V97.344H257.817V82.344V67.344H243.353V82.344ZM257.817 82.344L272.541 85.2092L281.757 37.8492L267.033 34.984L252.309 32.1188L243.093 79.4788L257.817 82.344ZM267.033 34.984V49.984H295.833V34.984V19.984H267.033V34.984ZM295.833 34.984L281.109 32.1188L271.893 79.4788L286.617 82.344L301.341 85.2092L310.557 37.8492L295.833 34.984ZM286.617 82.344V97.344H300.953V82.344V67.344H286.617V82.344ZM300.953 82.344L315.677 85.2092L324.893 37.8492L310.169 34.984L295.445 32.1188L286.229 79.4788L300.953 82.344ZM310.169 34.984V49.984H338.841V34.984V19.984H310.169V34.984ZM348.554 34.984V19.984H336.27L333.848 32.0267L348.554 34.984ZM377.354 34.984L392.02 38.131L395.914 19.984H377.354V34.984ZM370.57 66.6L355.904 63.453L344.91 114.691L381.35 77.0306L370.57 66.6ZM401.162 34.984V19.984H394.804L390.382 24.5534L401.162 34.984ZM428.17 34.984L442.876 37.9412L446.487 19.984H428.17V34.984ZM414.09 105V120H426.374L428.796 107.957L414.09 105ZM385.29 105L370.621 101.865L366.746 120H385.29V105ZM392.074 73.256L406.743 76.3909L417.763 24.8241L381.251 62.8698L392.074 73.256ZM361.61 105V120H368.005L372.433 115.386L361.61 105ZM334.474 105L319.768 102.043L316.157 120H334.474V105ZM348.554 34.984V49.984H377.354V34.984V19.984H348.554V34.984ZM377.354 34.984L362.688 31.837L355.904 63.453L370.57 66.6L385.236 69.747L392.02 38.131L377.354 34.984ZM370.57 66.6L381.35 77.0306L411.942 45.4146L401.162 34.984L390.382 24.5534L359.79 56.1694L370.57 66.6ZM401.162 34.984V49.984H428.17V34.984V19.984H401.162V34.984ZM428.17 34.984L413.464 32.0267L399.384 102.043L414.09 105L428.796 107.957L442.876 37.9412L428.17 34.984ZM414.09 105V90H385.29V105V120H414.09V105ZM385.29 105L399.959 108.135L406.743 76.3909L392.074 73.256L377.405 70.1211L370.621 101.865L385.29 105ZM392.074 73.256L381.251 62.8698L350.787 94.6138L361.61 105L372.433 115.386L402.897 83.6422L392.074 73.256ZM361.61 105V90H334.474V105V120H361.61V105ZM334.474 105L349.18 107.957L363.26 37.9412L348.554 34.984L333.848 32.0267L319.768 102.043L334.474 105ZM499.535 57.512V72.512H511.777L514.231 60.5179L499.535 57.512ZM477.903 57.512V42.512H465.534L463.178 54.6543L477.903 57.512ZM468.687 105V120H481.056L483.412 107.858L468.687 105ZM439.887 105L425.162 102.142L421.696 120H439.887V105ZM449.103 57.512L463.828 60.3697L467.294 42.512H449.103V57.512ZM427.983 57.512L413.287 54.5061L409.604 72.512H427.983V57.512ZM432.591 34.984V19.984H420.349L417.895 31.9781L432.591 34.984ZM504.143 34.984L518.839 37.9899L522.522 19.984H504.143V34.984ZM499.535 57.512V42.512H477.903V57.512V72.512H499.535V57.512ZM477.903 57.512L463.178 54.6543L453.962 102.142L468.687 105L483.412 107.858L492.628 60.3697L477.903 57.512ZM468.687 105V90H439.887V105V120H468.687V105ZM439.887 105L454.612 107.858L463.828 60.3697L449.103 57.512L434.378 54.6543L425.162 102.142L439.887 105ZM449.103 57.512V42.512H427.983V57.512V72.512H449.103V57.512ZM427.983 57.512L442.679 60.5179L447.287 37.9899L432.591 34.984L417.895 31.9781L413.287 54.5061L427.983 57.512ZM432.591 34.984V49.984H504.143V34.984V19.984H432.591V34.984ZM504.143 34.984L489.447 31.978L484.839 54.5061L499.535 57.512L514.231 60.5179L518.839 37.9899L504.143 34.984ZM572.172 76.712V91.712H583.998L586.758 80.2126L572.172 76.712ZM523.148 76.712V61.712H504.745L508.456 79.7368L523.148 76.712ZM527.372 82.984L534.868 69.9912L534.868 69.9912L527.372 82.984ZM551.82 80.04L564.189 71.5536L555.364 58.693L542.858 68.0118L551.82 80.04ZM563.852 97.576L572.287 109.98L584.743 101.51L576.221 89.0896L563.852 97.576ZM513.036 102.312L506.814 115.961L506.851 115.978L506.889 115.995L513.036 102.312ZM499.468 91.048L486.886 99.2151L486.936 99.2921L486.987 99.3685L499.468 91.048ZM500.108 53.288L487.23 45.5969L487.214 45.6239L487.198 45.6509L500.108 53.288ZM515.468 38.952L522.383 52.2631L522.451 52.2279L522.518 52.192L515.468 38.952ZM557.196 37.672L550.573 51.1309L550.66 51.1734L550.747 51.2149L557.196 37.672ZM569.484 48.552L556.622 56.2694L556.653 56.3217L556.685 56.3737L569.484 48.552ZM528.908 55.976L538.219 67.7367L538.249 67.7129L538.278 67.689L528.908 55.976ZM524.3 62.76L510.155 57.7677L503.099 77.76H524.3V62.76ZM547.212 62.76V77.76H562.212V62.76H547.212ZM544.396 55.976L534.306 67.0751L534.447 67.2035L534.592 67.3283L544.396 55.976ZM573.708 64.552H558.708C558.708 67.0595 558.373 69.9319 557.586 73.2114L572.172 76.712L586.758 80.2126C588.019 74.9588 588.708 69.7245 588.708 64.552H573.708ZM572.172 76.712V61.712H523.148V76.712V91.712H572.172V76.712ZM523.148 76.712L508.456 79.7368C509.769 86.1113 513.349 92.2108 519.876 95.9768L527.372 82.984L534.868 69.9912C535.704 70.4734 536.5 71.1964 537.094 72.077C537.655 72.9106 537.812 73.5537 537.84 73.6872L523.148 76.712ZM527.372 82.984L519.876 95.9768C525.276 99.0923 531.317 99.904 536.588 99.904V84.904V69.904C535.409 69.904 534.716 69.8052 534.399 69.7393C534.085 69.6738 534.327 69.6795 534.868 69.9912L527.372 82.984ZM536.588 84.904V99.904C545.383 99.904 553.656 97.3776 560.782 92.0682L551.82 80.04L542.858 68.0118C541.28 69.1877 539.399 69.904 536.588 69.904V84.904ZM551.82 80.04L539.451 88.5264L551.483 106.062L563.852 97.576L576.221 89.0896L564.189 71.5536L551.82 80.04ZM563.852 97.576L555.417 85.1721C549.729 89.0402 542.576 91.28 533.26 91.28V106.28V121.28C547.666 121.28 560.908 117.717 572.287 109.98L563.852 97.576ZM533.26 106.28V91.28C527.414 91.28 522.827 90.2665 519.183 88.6295L513.036 102.312L506.889 115.995C515.021 119.648 523.916 121.28 533.26 121.28V106.28ZM513.036 102.312L519.258 88.6634C515.758 87.0676 513.502 85.0577 511.949 82.7275L499.468 91.048L486.987 99.3685C491.919 106.766 498.709 112.266 506.814 115.961L513.036 102.312ZM499.468 91.048L512.05 82.8809C510.674 80.7615 509.732 77.9651 509.732 73.896H494.732H479.732C479.732 82.9682 481.947 91.6065 486.886 99.2151L499.468 91.048ZM494.732 73.896H509.732C509.732 68.6506 510.925 64.4632 513.018 60.9251L500.108 53.288L487.198 45.6509C482.123 54.2301 479.732 63.7814 479.732 73.896H494.732ZM500.108 53.288L512.986 60.9791C515.177 57.3112 518.193 54.4396 522.383 52.2631L515.468 38.952L508.553 25.6409C499.602 30.291 492.378 36.9768 487.23 45.5969L500.108 53.288ZM515.468 38.952L522.518 52.192C526.619 50.0082 531.687 48.704 538.124 48.704V33.704V18.704C527.495 18.704 517.458 20.8985 508.418 25.7119L515.468 38.952ZM538.124 33.704V48.704C543.673 48.704 547.669 49.7018 550.573 51.1309L557.196 37.672L563.819 24.2131C555.971 20.3515 547.252 18.704 538.124 18.704V33.704ZM557.196 37.672L550.747 51.2149C553.703 52.6227 555.457 54.3292 556.622 56.2694L569.484 48.552L582.346 40.8346C577.879 33.3881 571.441 27.8413 563.645 24.1291L557.196 37.672ZM569.484 48.552L556.685 56.3737C557.891 58.3483 558.708 60.9079 558.708 64.552H573.708H588.708C588.708 56.0787 586.709 47.9717 582.283 40.7302L569.484 48.552ZM536.844 53.416V38.416C530.837 38.416 524.735 40.1053 519.538 44.263L528.908 55.976L538.278 67.689C537.9 67.9917 537.474 68.2099 537.097 68.3316C536.745 68.4452 536.62 68.416 536.844 68.416V53.416ZM528.908 55.976L519.597 44.2153C514.963 47.884 511.95 52.681 510.155 57.7677L524.3 62.76L538.445 67.7523C538.581 67.3672 538.668 67.2573 538.628 67.3162C538.609 67.3452 538.564 67.4062 538.49 67.4862C538.416 67.5668 538.324 67.6529 538.219 67.7367L528.908 55.976ZM524.3 62.76V77.76H547.212V62.76V47.76H524.3V62.76ZM547.212 62.76H562.212C562.212 56.3166 559.949 49.5883 554.2 44.6236L544.396 55.976L534.592 67.3283C533.787 66.6333 533.092 65.6942 532.654 64.6387C532.24 63.6422 532.212 62.9243 532.212 62.76H547.212ZM544.396 55.976L554.486 44.8769C549.217 40.0864 542.782 38.416 536.844 38.416V53.416V68.416C537.084 68.416 536.837 68.4493 536.284 68.262C535.685 68.0588 534.966 67.6748 534.306 67.0751L544.396 55.976Z" fill="#C5191C" mask="url(#path-1-outside-1_107_46)"/>
</g>
<defs>
<filter id="filter0_d_107_46" x="0.599121" y="0.399902" width="592.109" height="128.88" filterUnits="userSpaceOnUse" color-interpolation-filters="sRGB">
<feFlood flood-opacity="0" result="BackgroundImageFix"/>
<feColorMatrix in="SourceAlpha" type="matrix" values="0 0 0 0 0 0 0 0 0 0 0 0 0 0 0 0 0 0 127 0" result="hardAlpha"/>
<feOffset dy="4"/>
<feGaussianBlur stdDeviation="2"/>
<feComposite in2="hardAlpha" operator="out"/>
<feColorMatrix type="matrix" values="0 0 0 0 0 0 0 0 0 0 0 0 0 0 0 0 0 0 0.25 0"/>
<feBlend mode="normal" in2="BackgroundImageFix" result="effect1_dropShadow_107_46"/>
<feBlend mode="normal" in="SourceGraphic" in2="effect1_dropShadow_107_46" result="shape"/>
</filter>
</defs>
</svg>
