<svg width="617" height="134" viewBox="0 0 617 134" fill="none" xmlns="http://www.w3.org/2000/svg">
<g filter="url(#filter0_d_107_47)">
<mask id="path-1-outside-1_107_47" maskUnits="userSpaceOnUse" x="4" y="0" width="609" height="126" fill="black">
<rect fill="white" x="4" width="609" height="126"/>
<path d="M99.632 61.664C103.387 63.5413 106.288 66.1013 108.336 69.344C110.469 72.5867 111.536 76.256 111.536 80.352C111.536 86.4107 109.317 91.744 104.88 96.352C100.528 100.96 94.64 104.501 87.216 106.976C79.792 109.451 71.6853 110.688 62.896 110.688C49.4987 110.688 37.0827 107.915 25.648 102.368L38.704 81.504C42.544 83.296 46.5973 84.6613 50.864 85.6C55.1307 86.4533 59.2693 86.88 63.28 86.88C68.5707 86.88 72.9227 86.112 76.336 84.576C79.8347 83.04 81.584 80.864 81.584 78.048C81.584 74.8907 78.9387 73.312 73.648 73.312H49.456L53.808 51.552H75.44C78.1707 51.552 80.3467 50.9973 81.968 49.888C83.6747 48.7787 84.528 47.328 84.528 45.536C84.528 43.5733 83.4187 42.08 81.2 41.056C78.9813 39.9467 76.0373 39.392 72.368 39.392C68.784 39.392 64.8587 39.904 60.592 40.928C56.4107 41.8667 52.272 43.2747 48.176 45.152L43.824 22.752C54.7467 18.2293 65.7973 15.968 76.976 15.968C84.2293 15.968 90.8 16.9493 96.688 18.912C102.661 20.8747 107.355 23.648 110.768 27.232C114.181 30.816 115.888 35.04 115.888 39.904C115.888 44.4267 114.395 48.6507 111.408 52.576C108.421 56.5013 104.496 59.5307 99.632 61.664ZM178.845 71.904C184.392 74.8053 187.165 79.5413 187.165 86.112C187.165 92.9387 184.306 98.3147 178.589 102.24C172.872 106.08 164.808 108 154.397 108H112.029L126.109 37.984H164.381C172.914 37.984 179.528 39.52 184.221 42.592C188.914 45.5787 191.261 49.8453 191.261 55.392C191.261 59.0613 190.194 62.3467 188.061 65.248C185.928 68.064 182.856 70.2827 178.845 71.904ZM145.821 65.632H157.213C159.432 65.632 161.181 65.12 162.461 64.096C163.741 62.9867 164.381 61.5787 164.381 59.872C164.381 58.4213 163.912 57.312 162.973 56.544C162.034 55.776 160.754 55.392 159.133 55.392H147.869L145.821 65.632ZM154.781 90.08C157 90.08 158.749 89.568 160.029 88.544C161.309 87.4347 161.949 86.0267 161.949 84.32C161.949 82.8693 161.48 81.76 160.541 80.992C159.602 80.224 158.322 79.84 156.701 79.84H143.005L140.957 90.08H154.781ZM229.137 109.28C221.457 109.28 214.758 107.957 209.041 105.312C203.324 102.581 198.886 98.784 195.729 93.92C192.657 89.056 191.121 83.3813 191.121 76.896C191.121 69.3013 192.998 62.4747 196.753 56.416C200.508 50.272 205.67 45.4507 212.241 41.952C218.897 38.4533 226.406 36.704 234.769 36.704C242.449 36.704 249.148 38.0693 254.865 40.8C260.582 43.4453 264.977 47.2 268.049 52.064C271.206 56.928 272.785 62.6027 272.785 69.088C272.785 76.6827 270.908 83.552 267.153 89.696C263.398 95.7547 258.193 100.533 251.537 104.032C244.966 107.531 237.5 109.28 229.137 109.28ZM230.801 86.496C234.556 86.496 237.585 85.0453 239.889 82.144C242.278 79.2427 243.473 75.36 243.473 70.496C243.473 67.168 242.534 64.5227 240.657 62.56C238.865 60.512 236.348 59.488 233.105 59.488C229.35 59.488 226.278 60.9387 223.889 63.84C221.585 66.7413 220.433 70.624 220.433 75.488C220.433 78.816 221.329 81.504 223.121 83.552C224.998 85.5147 227.558 86.496 230.801 86.496ZM284.929 37.984H313.729L308.737 62.56H328.449L333.441 37.984H362.241L348.161 108H319.361L323.969 85.216H304.257L299.649 108H270.849L284.929 37.984ZM371.964 37.984H400.764L393.98 69.6L424.572 37.984H451.58L437.5 108H408.7L415.484 76.256L385.02 108H357.884L371.964 37.984ZM522.945 60.512H501.313L492.097 108H463.297L472.513 60.512H451.393L456.001 37.984H527.553L522.945 60.512ZM597.118 67.552C597.118 71.392 596.606 75.4453 595.582 79.712H546.558C547.155 82.6133 548.563 84.704 550.782 85.984C553.001 87.264 556.073 87.904 559.998 87.904C565.801 87.904 570.878 86.2827 575.23 83.04L587.262 100.576C578.729 106.379 568.531 109.28 556.67 109.28C549.075 109.28 542.334 107.957 536.446 105.312C530.643 102.667 526.121 98.912 522.878 94.048C519.721 89.184 518.142 83.4667 518.142 76.896C518.142 69.216 519.934 62.3467 523.518 56.288C527.187 50.144 532.307 45.3653 538.878 41.952C545.449 38.4533 553.001 36.704 561.534 36.704C568.873 36.704 575.23 38.0267 580.606 40.672C585.982 43.232 590.078 46.8587 592.894 51.552C595.71 56.16 597.118 61.4933 597.118 67.552ZM560.254 56.416C557.097 56.416 554.451 57.2693 552.318 58.976C550.27 60.5973 548.734 62.8587 547.71 65.76H570.622C570.622 62.8587 569.683 60.5973 567.806 58.976C565.929 57.2693 563.411 56.416 560.254 56.416Z"/>
</mask>
<path d="M99.632 61.664C103.387 63.5413 106.288 66.1013 108.336 69.344C110.469 72.5867 111.536 76.256 111.536 80.352C111.536 86.4107 109.317 91.744 104.88 96.352C100.528 100.96 94.64 104.501 87.216 106.976C79.792 109.451 71.6853 110.688 62.896 110.688C49.4987 110.688 37.0827 107.915 25.648 102.368L38.704 81.504C42.544 83.296 46.5973 84.6613 50.864 85.6C55.1307 86.4533 59.2693 86.88 63.28 86.88C68.5707 86.88 72.9227 86.112 76.336 84.576C79.8347 83.04 81.584 80.864 81.584 78.048C81.584 74.8907 78.9387 73.312 73.648 73.312H49.456L53.808 51.552H75.44C78.1707 51.552 80.3467 50.9973 81.968 49.888C83.6747 48.7787 84.528 47.328 84.528 45.536C84.528 43.5733 83.4187 42.08 81.2 41.056C78.9813 39.9467 76.0373 39.392 72.368 39.392C68.784 39.392 64.8587 39.904 60.592 40.928C56.4107 41.8667 52.272 43.2747 48.176 45.152L43.824 22.752C54.7467 18.2293 65.7973 15.968 76.976 15.968C84.2293 15.968 90.8 16.9493 96.688 18.912C102.661 20.8747 107.355 23.648 110.768 27.232C114.181 30.816 115.888 35.04 115.888 39.904C115.888 44.4267 114.395 48.6507 111.408 52.576C108.421 56.5013 104.496 59.5307 99.632 61.664ZM178.845 71.904C184.392 74.8053 187.165 79.5413 187.165 86.112C187.165 92.9387 184.306 98.3147 178.589 102.24C172.872 106.08 164.808 108 154.397 108H112.029L126.109 37.984H164.381C172.914 37.984 179.528 39.52 184.221 42.592C188.914 45.5787 191.261 49.8453 191.261 55.392C191.261 59.0613 190.194 62.3467 188.061 65.248C185.928 68.064 182.856 70.2827 178.845 71.904ZM145.821 65.632H157.213C159.432 65.632 161.181 65.12 162.461 64.096C163.741 62.9867 164.381 61.5787 164.381 59.872C164.381 58.4213 163.912 57.312 162.973 56.544C162.034 55.776 160.754 55.392 159.133 55.392H147.869L145.821 65.632ZM154.781 90.08C157 90.08 158.749 89.568 160.029 88.544C161.309 87.4347 161.949 86.0267 161.949 84.32C161.949 82.8693 161.48 81.76 160.541 80.992C159.602 80.224 158.322 79.84 156.701 79.84H143.005L140.957 90.08H154.781ZM229.137 109.28C221.457 109.28 214.758 107.957 209.041 105.312C203.324 102.581 198.886 98.784 195.729 93.92C192.657 89.056 191.121 83.3813 191.121 76.896C191.121 69.3013 192.998 62.4747 196.753 56.416C200.508 50.272 205.67 45.4507 212.241 41.952C218.897 38.4533 226.406 36.704 234.769 36.704C242.449 36.704 249.148 38.0693 254.865 40.8C260.582 43.4453 264.977 47.2 268.049 52.064C271.206 56.928 272.785 62.6027 272.785 69.088C272.785 76.6827 270.908 83.552 267.153 89.696C263.398 95.7547 258.193 100.533 251.537 104.032C244.966 107.531 237.5 109.28 229.137 109.28ZM230.801 86.496C234.556 86.496 237.585 85.0453 239.889 82.144C242.278 79.2427 243.473 75.36 243.473 70.496C243.473 67.168 242.534 64.5227 240.657 62.56C238.865 60.512 236.348 59.488 233.105 59.488C229.35 59.488 226.278 60.9387 223.889 63.84C221.585 66.7413 220.433 70.624 220.433 75.488C220.433 78.816 221.329 81.504 223.121 83.552C224.998 85.5147 227.558 86.496 230.801 86.496ZM284.929 37.984H313.729L308.737 62.56H328.449L333.441 37.984H362.241L348.161 108H319.361L323.969 85.216H304.257L299.649 108H270.849L284.929 37.984ZM371.964 37.984H400.764L393.98 69.6L424.572 37.984H451.58L437.5 108H408.7L415.484 76.256L385.02 108H357.884L371.964 37.984ZM522.945 60.512H501.313L492.097 108H463.297L472.513 60.512H451.393L456.001 37.984H527.553L522.945 60.512ZM597.118 67.552C597.118 71.392 596.606 75.4453 595.582 79.712H546.558C547.155 82.6133 548.563 84.704 550.782 85.984C553.001 87.264 556.073 87.904 559.998 87.904C565.801 87.904 570.878 86.2827 575.23 83.04L587.262 100.576C578.729 106.379 568.531 109.28 556.67 109.28C549.075 109.28 542.334 107.957 536.446 105.312C530.643 102.667 526.121 98.912 522.878 94.048C519.721 89.184 518.142 83.4667 518.142 76.896C518.142 69.216 519.934 62.3467 523.518 56.288C527.187 50.144 532.307 45.3653 538.878 41.952C545.449 38.4533 553.001 36.704 561.534 36.704C568.873 36.704 575.23 38.0267 580.606 40.672C585.982 43.232 590.078 46.8587 592.894 51.552C595.71 56.16 597.118 61.4933 597.118 67.552ZM560.254 56.416C557.097 56.416 554.451 57.2693 552.318 58.976C550.27 60.5973 548.734 62.8587 547.71 65.76H570.622C570.622 62.8587 569.683 60.5973 567.806 58.976C565.929 57.2693 563.411 56.416 560.254 56.416Z" fill="white"/>
<path d="M99.632 61.664L93.6071 47.9272L64.3135 60.7752L92.9238 75.0804L99.632 61.664ZM108.336 69.344L95.6537 77.3539L95.7281 77.4718L95.8047 77.5882L108.336 69.344ZM104.88 96.352L94.0752 85.9474L94.0247 85.9998L93.9748 86.0526L104.88 96.352ZM87.216 106.976L82.4726 92.7458L82.4726 92.7458L87.216 106.976ZM25.648 102.368L12.9324 94.411L4.0704 108.573L19.1014 115.864L25.648 102.368ZM38.704 81.504L45.0473 67.9113L33.0257 62.3012L25.9884 73.547L38.704 81.504ZM50.864 85.6L47.6411 100.25L47.7814 100.281L47.9223 100.309L50.864 85.6ZM76.336 84.576L70.3062 70.8413L70.2432 70.869L70.1805 70.8972L76.336 84.576ZM49.456 73.312L34.7473 70.3703L31.1589 88.312H49.456V73.312ZM53.808 51.552V36.552H41.5109L39.0993 48.6103L53.808 51.552ZM81.968 49.888L73.7932 37.3113L73.6443 37.4081L73.4977 37.5084L81.968 49.888ZM81.2 41.056L74.4918 54.4724L74.7014 54.5772L74.9141 54.6754L81.2 41.056ZM60.592 40.928L63.8776 55.5637L63.9853 55.5396L64.0926 55.5138L60.592 40.928ZM48.176 45.152L33.4513 48.0128L37.0886 66.7342L54.4258 58.788L48.176 45.152ZM43.824 22.752L38.0855 8.89307L26.7619 13.5818L29.0993 25.6128L43.824 22.752ZM96.688 18.912L91.9446 33.1422L91.9751 33.1524L92.0057 33.1625L96.688 18.912ZM110.768 27.232L121.63 16.8872L121.63 16.8872L110.768 27.232ZM111.408 52.576L123.345 61.6588L123.345 61.6588L111.408 52.576ZM99.632 61.664L92.9238 75.0804C94.4702 75.8536 95.2031 76.6404 95.6537 77.3539L108.336 69.344L121.018 61.3341C117.373 55.5622 112.303 51.229 106.34 48.2476L99.632 61.664ZM108.336 69.344L95.8047 77.5882C96.2364 78.2444 96.536 79.0159 96.536 80.352H111.536H126.536C126.536 73.4961 124.702 66.9289 120.867 61.0998L108.336 69.344ZM111.536 80.352H96.536C96.536 82.2973 95.9871 83.9619 94.0752 85.9474L104.88 96.352L115.685 106.757C122.648 99.5261 126.536 90.524 126.536 80.352H111.536ZM104.88 96.352L93.9748 86.0526C91.675 88.4878 88.0929 90.8723 82.4726 92.7458L87.216 106.976L91.9594 121.206C101.187 118.13 109.381 113.432 115.785 106.651L104.88 96.352ZM87.216 106.976L82.4726 92.7458C76.7538 94.652 70.2693 95.688 62.896 95.688V110.688V125.688C73.1013 125.688 82.8302 124.249 91.9594 121.206L87.216 106.976ZM62.896 110.688V95.688C51.6405 95.688 41.4784 93.3753 32.1946 88.872L25.648 102.368L19.1014 115.864C32.6869 122.454 47.3568 125.688 62.896 125.688V110.688ZM25.648 102.368L38.3636 110.325L51.4196 89.461L38.704 81.504L25.9884 73.547L12.9324 94.411L25.648 102.368ZM38.704 81.504L32.3607 95.0967C37.2293 97.3688 42.332 99.0817 47.6411 100.25L50.864 85.6L54.0869 70.9503C50.8627 70.241 47.8587 69.2232 45.0473 67.9113L38.704 81.504ZM50.864 85.6L47.9223 100.309C53.0764 101.34 58.2022 101.88 63.28 101.88V86.88V71.88C60.3365 71.88 57.1849 71.5671 53.8057 70.8913L50.864 85.6ZM63.28 86.88V101.88C69.8768 101.88 76.5161 100.944 82.4915 98.2548L76.336 84.576L70.1805 70.8972C69.3292 71.2803 67.2645 71.88 63.28 71.88V86.88ZM76.336 84.576L82.3658 98.3107C88.9997 95.3982 96.584 88.9898 96.584 78.048H81.584H66.584C66.584 76.0697 67.2942 73.9947 68.5814 72.3936C69.6703 71.0391 70.6206 70.7033 70.3062 70.8413L76.336 84.576ZM81.584 78.048H96.584C96.584 71.3493 93.2821 65.1931 87.2869 61.6153C82.5172 58.7689 77.2952 58.312 73.648 58.312V73.312V88.312C75.2914 88.312 74.0374 88.6444 71.9131 87.3767C70.6267 86.609 69.1115 85.2943 67.9924 83.2907C66.8829 81.3044 66.584 79.3962 66.584 78.048H81.584ZM73.648 73.312V58.312H49.456V73.312V88.312H73.648V73.312ZM49.456 73.312L64.1647 76.2537L68.5167 54.4937L53.808 51.552L39.0993 48.6103L34.7473 70.3703L49.456 73.312ZM53.808 51.552V66.552H75.44V51.552V36.552H53.808V51.552ZM75.44 51.552V66.552C80.0521 66.552 85.522 65.6314 90.4383 62.2676L81.968 49.888L73.4977 37.5084C75.1714 36.3633 76.2893 36.552 75.44 36.552V51.552ZM81.968 49.888L90.1428 62.4647C95.4271 59.0299 99.528 53.1654 99.528 45.536H84.528H69.528C69.528 43.9374 69.9414 42.0927 70.959 40.3627C71.9321 38.7084 73.1009 37.7613 73.7932 37.3113L81.968 49.888ZM84.528 45.536H99.528C99.528 41.5217 98.323 37.48 95.7372 33.9991C93.289 30.7036 90.1833 28.6816 87.4859 27.4366L81.2 41.056L74.9141 54.6754C74.4354 54.4544 72.9936 53.6911 71.6549 51.8889C70.1784 49.9013 69.528 47.5876 69.528 45.536H84.528ZM81.2 41.056L87.9082 27.6396C82.8498 25.1104 77.3388 24.392 72.368 24.392V39.392V54.392C73.47 54.392 74.1713 54.4772 74.5508 54.5487C74.9303 54.6202 74.8512 54.6521 74.4918 54.4724L81.2 41.056ZM72.368 39.392V24.392C67.3768 24.392 62.2592 25.1019 57.0914 26.3422L60.592 40.928L64.0926 55.5138C67.4581 54.7061 70.1912 54.392 72.368 54.392V39.392ZM60.592 40.928L57.3064 26.2923C52.0539 27.4714 46.9241 29.2253 41.9262 31.516L48.176 45.152L54.4258 58.788C57.6199 57.324 60.7674 56.2619 63.8776 55.5637L60.592 40.928ZM48.176 45.152L62.9007 42.2912L58.5487 19.8912L43.824 22.752L29.0993 25.6128L33.4513 48.0128L48.176 45.152ZM43.824 22.752L49.5625 36.6109C58.772 32.7976 67.8783 30.968 76.976 30.968V15.968V0.967995C63.7163 0.967995 50.7213 3.66105 38.0855 8.89307L43.824 22.752ZM76.976 15.968V30.968C82.8828 30.968 87.8192 31.7671 91.9446 33.1422L96.688 18.912L101.431 4.68175C93.7808 2.13153 85.5759 0.967995 76.976 0.967995V15.968ZM96.688 18.912L92.0057 33.1625C96.2494 34.5568 98.5989 36.2045 99.9059 37.5768L110.768 27.232L121.63 16.8872C116.11 11.0915 109.073 7.19251 101.37 4.66152L96.688 18.912ZM110.768 27.232L99.9059 37.5768C100.715 38.4262 100.888 38.9662 100.888 39.904H115.888H130.888C130.888 31.1138 127.648 23.2058 121.63 16.8872L110.768 27.232ZM115.888 39.904H100.888C100.888 40.8439 100.661 41.9283 99.4706 43.4932L111.408 52.576L123.345 61.6588C128.128 55.373 130.888 48.0094 130.888 39.904H115.888ZM111.408 52.576L99.4706 43.4932C98.145 45.2354 96.3215 46.7366 93.6071 47.9272L99.632 61.664L105.657 75.4008C112.671 72.3247 118.698 67.7673 123.345 61.6588L111.408 52.576ZM178.845 71.904L173.223 57.9974L143.143 70.1574L171.893 85.1955L178.845 71.904ZM178.589 102.24L186.952 114.692L187.016 114.649L187.079 114.606L178.589 102.24ZM112.029 108L97.3234 105.043L93.7123 123H112.029V108ZM126.109 37.984V22.984H113.825L111.403 35.0267L126.109 37.984ZM184.221 42.592L176.006 55.1425L176.087 55.1952L176.168 55.2469L184.221 42.592ZM188.061 65.248L200.017 74.3059L200.082 74.2203L200.146 74.1339L188.061 65.248ZM145.821 65.632L131.112 62.6903L127.524 80.632H145.821V65.632ZM162.461 64.096L171.831 75.809L172.062 75.6246L172.285 75.4313L162.461 64.096ZM162.973 56.544L172.472 44.9347L172.472 44.9346L162.973 56.544ZM147.869 55.392V40.392H135.572L133.16 52.4503L147.869 55.392ZM160.029 88.544L169.399 100.257L169.63 100.073L169.853 99.8793L160.029 88.544ZM160.541 80.992L151.042 92.6013L151.042 92.6014L160.541 80.992ZM143.005 79.84V64.84H130.708L128.296 76.8983L143.005 79.84ZM140.957 90.08L126.248 87.1383L122.66 105.08H140.957V90.08ZM178.845 71.904L171.893 85.1955C172.246 85.3805 172.361 85.492 172.341 85.4743C172.312 85.4476 172.225 85.3548 172.141 85.2118C172.059 85.0721 172.054 85.0096 172.077 85.1013C172.103 85.2065 172.165 85.5217 172.165 86.112H187.165H202.165C202.165 80.6893 201.005 75.1351 198.029 70.0522C195.029 64.9287 190.705 61.1797 185.797 58.6125L178.845 71.904ZM187.165 86.112H172.165C172.165 87.9024 171.819 88.693 170.099 89.874L178.589 102.24L187.079 114.606C196.794 107.936 202.165 97.9749 202.165 86.112H187.165ZM178.589 102.24L170.226 89.7879C167.947 91.3184 163.255 93 154.397 93V108V123C166.36 123 177.796 120.842 186.952 114.692L178.589 102.24ZM154.397 108V93H112.029V108V123H154.397V108ZM112.029 108L126.735 110.957L140.815 40.9412L126.109 37.984L111.403 35.0267L97.3234 105.043L112.029 108ZM126.109 37.984V52.984H164.381V37.984V22.984H126.109V37.984ZM164.381 37.984V52.984C171.413 52.984 174.718 54.2994 176.006 55.1425L184.221 42.592L192.436 30.0415C184.337 24.7406 174.416 22.984 164.381 22.984V37.984ZM184.221 42.592L176.168 55.2469C176.453 55.4281 176.549 55.5309 176.537 55.5191C176.533 55.5142 176.508 55.488 176.472 55.4399C176.436 55.3913 176.396 55.3308 176.358 55.2608C176.319 55.1908 176.289 55.124 176.267 55.0658C176.244 55.0079 176.235 54.9706 176.232 54.9606C176.227 54.9377 176.261 55.0652 176.261 55.392H191.261H206.261C206.261 44.6984 201.279 35.6672 192.274 29.9371L184.221 42.592ZM191.261 55.392H176.261C176.261 55.752 176.212 55.92 176.194 55.9759C176.177 56.0289 176.134 56.1481 175.976 56.3621L188.061 65.248L200.146 74.1339C204.211 68.605 206.261 62.1933 206.261 55.392H191.261ZM188.061 65.248L176.105 56.1901C175.937 56.4108 175.286 57.1636 173.223 57.9974L178.845 71.904L184.467 85.8106C190.426 83.4017 195.918 79.7172 200.017 74.3059L188.061 65.248ZM145.821 65.632V80.632H157.213V65.632V50.632H145.821V65.632ZM157.213 65.632V80.632C161.639 80.632 167.086 79.6051 171.831 75.809L162.461 64.096L153.091 52.383C154.14 51.5431 155.183 51.0839 155.976 50.8519C156.728 50.6316 157.194 50.632 157.213 50.632V65.632ZM162.461 64.096L172.285 75.4313C176.881 71.4481 179.381 65.8909 179.381 59.872H164.381H149.381C149.381 58.8075 149.591 57.4399 150.246 56.001C150.901 54.559 151.803 53.4838 152.637 52.7607L162.461 64.096ZM164.381 59.872H179.381C179.381 54.8998 177.584 49.1177 172.472 44.9347L162.973 56.544L153.474 68.1533C152.072 67.0058 150.936 65.5015 150.214 63.7966C149.524 62.1651 149.381 60.7531 149.381 59.872H164.381ZM162.973 56.544L172.472 44.9346C168.069 41.3327 163.047 40.392 159.133 40.392V55.392V70.392C158.462 70.392 155.999 70.2193 153.474 68.1534L162.973 56.544ZM159.133 55.392V40.392H147.869V55.392V70.392H159.133V55.392ZM147.869 55.392L133.16 52.4503L131.112 62.6903L145.821 65.632L160.53 68.5737L162.578 58.3337L147.869 55.392ZM154.781 90.08V105.08C159.207 105.08 164.654 104.053 169.399 100.257L160.029 88.544L150.659 76.831C151.708 75.9911 152.751 75.5319 153.544 75.2999C154.296 75.0796 154.762 75.08 154.781 75.08V90.08ZM160.029 88.544L169.853 99.8793C174.449 95.8961 176.949 90.3389 176.949 84.32H161.949H146.949C146.949 83.2555 147.159 81.8879 147.814 80.449C148.469 79.0071 149.371 77.9318 150.205 77.2087L160.029 88.544ZM161.949 84.32H176.949C176.949 79.3478 175.152 73.5657 170.04 69.3826L160.541 80.992L151.042 92.6014C149.64 91.4538 148.504 89.9495 147.782 88.2446C147.092 86.6131 146.949 85.2011 146.949 84.32H161.949ZM160.541 80.992L170.04 69.3827C165.637 65.7807 160.615 64.84 156.701 64.84V79.84V94.84C156.03 94.84 153.567 94.6673 151.042 92.6013L160.541 80.992ZM156.701 79.84V64.84H143.005V79.84V94.84H156.701V79.84ZM143.005 79.84L128.296 76.8983L126.248 87.1383L140.957 90.08L155.666 93.0217L157.714 82.7817L143.005 79.84ZM140.957 90.08V105.08H154.781V90.08V75.08H140.957V90.08ZM209.041 105.312L202.576 118.847L202.659 118.887L202.742 118.925L209.041 105.312ZM195.729 93.92L183.047 101.93L183.097 102.009L183.147 102.087L195.729 93.92ZM196.753 56.416L209.503 64.3175L209.528 64.2777L209.552 64.2377L196.753 56.416ZM212.241 41.952L205.262 28.6745L205.226 28.6931L205.191 28.7119L212.241 41.952ZM254.865 40.8L248.4 54.3354L248.483 54.3749L248.566 54.4134L254.865 40.8ZM268.049 52.064L255.367 60.0739L255.417 60.1528L255.467 60.2311L268.049 52.064ZM267.153 89.696L279.903 97.5975L279.928 97.5577L279.952 97.5178L267.153 89.696ZM251.537 104.032L244.558 90.7545L244.522 90.7731L244.487 90.7919L251.537 104.032ZM239.889 82.144L228.31 72.6084L228.225 72.7113L228.142 72.8158L239.889 82.144ZM240.657 62.56L229.368 72.4376L229.587 72.6879L229.817 72.9283L240.657 62.56ZM223.889 63.84L212.31 54.3044L212.225 54.4073L212.142 54.5118L223.889 63.84ZM223.121 83.552L211.832 93.4296L212.051 93.6799L212.281 93.9203L223.121 83.552ZM229.137 109.28V94.28C223.165 94.28 218.699 93.2528 215.34 91.6986L209.041 105.312L202.742 118.925C210.818 122.662 219.749 124.28 229.137 124.28V109.28ZM209.041 105.312L215.506 91.7766C212.044 90.1233 209.825 88.0854 208.311 85.7529L195.729 93.92L183.147 102.087C187.948 109.483 194.603 115.039 202.576 118.847L209.041 105.312ZM195.729 93.92L208.411 85.9101C207.04 83.739 206.121 80.9173 206.121 76.896H191.121H176.121C176.121 85.8454 178.274 94.373 183.047 101.93L195.729 93.92ZM191.121 76.896H206.121C206.121 71.9025 207.317 67.846 209.503 64.3175L196.753 56.416L184.003 48.5145C178.68 57.1034 176.121 66.7002 176.121 76.896H191.121ZM196.753 56.416L209.552 64.2377C211.86 60.4608 215.003 57.4754 219.291 55.192L212.241 41.952L205.191 28.7119C196.338 33.4259 189.155 40.0832 183.954 48.5942L196.753 56.416ZM212.241 41.952L219.22 55.2295C223.491 52.9844 228.561 51.704 234.769 51.704V36.704V21.704C224.252 21.704 214.303 23.9222 205.262 28.6745L212.241 41.952ZM234.769 36.704V51.704C240.679 51.704 245.084 52.7517 248.4 54.3354L254.865 40.8L261.33 27.2646C253.211 23.387 244.219 21.704 234.769 21.704V36.704ZM254.865 40.8L248.566 54.4134C251.919 55.9649 253.984 57.8845 255.367 60.0739L268.049 52.064L280.731 44.0541C275.97 36.5155 269.245 30.9257 261.164 27.1866L254.865 40.8ZM268.049 52.064L255.467 60.2311C256.864 62.3822 257.785 65.1468 257.785 69.088H272.785H287.785C287.785 60.0585 285.549 51.4738 280.631 43.8969L268.049 52.064ZM272.785 69.088H257.785C257.785 74.0804 256.589 78.2165 254.354 81.8742L267.153 89.696L279.952 97.5178C285.226 88.8875 287.785 79.2849 287.785 69.088H272.785ZM267.153 89.696L254.403 81.7945C252.136 85.4518 248.981 88.4298 244.558 90.7545L251.537 104.032L258.516 117.309C267.405 112.637 274.66 106.058 279.903 97.5975L267.153 89.696ZM251.537 104.032L244.487 90.7919C240.343 92.9986 235.349 94.28 229.137 94.28V109.28V124.28C239.651 124.28 249.59 122.063 258.587 117.272L251.537 104.032ZM230.801 86.496V101.496C239.06 101.496 246.442 98.0127 251.636 91.4722L239.889 82.144L228.142 72.8158C228.257 72.6708 228.669 72.2341 229.41 71.8792C230.145 71.5272 230.702 71.496 230.801 71.496V86.496ZM239.889 82.144L251.468 91.6796C256.65 85.3873 258.473 77.8002 258.473 70.496H243.473H228.473C228.473 71.7181 228.321 72.3818 228.24 72.6447C228.172 72.8668 228.162 72.7879 228.31 72.6084L239.889 82.144ZM243.473 70.496H258.473C258.473 64.2243 256.618 57.5461 251.497 52.1917L240.657 62.56L229.817 72.9283C229.242 72.3267 228.847 71.6378 228.633 71.0321C228.435 70.4764 228.473 70.2317 228.473 70.496H243.473ZM240.657 62.56L251.946 52.6824C246.757 46.7527 239.765 44.488 233.105 44.488V59.488V74.488C233.155 74.488 232.62 74.495 231.773 74.1504C230.862 73.78 230.01 73.1712 229.368 72.4376L240.657 62.56ZM233.105 59.488V44.488C224.863 44.488 217.545 47.9473 212.31 54.3044L223.889 63.84L235.468 73.3756C235.407 73.4494 235.059 73.8239 234.39 74.1397C233.721 74.4558 233.207 74.488 233.105 74.488V59.488ZM223.889 63.84L212.142 54.5118C207.153 60.7948 205.433 68.3021 205.433 75.488H220.433H235.433C235.433 74.2204 235.585 73.5059 235.677 73.1947C235.758 72.9214 235.784 72.9813 235.636 73.1682L223.889 63.84ZM220.433 75.488H205.433C205.433 81.6045 207.145 88.0721 211.832 93.4296L223.121 83.552L234.41 73.6744C234.879 74.2112 235.18 74.7902 235.335 75.2566C235.477 75.6824 235.433 75.8143 235.433 75.488H220.433ZM223.121 83.552L212.281 93.9203C217.531 99.4084 224.322 101.496 230.801 101.496V86.496V71.496C230.687 71.496 231.102 71.4794 231.818 71.7538C232.588 72.0488 233.352 72.5474 233.961 73.1837L223.121 83.552ZM284.929 37.984V22.984H272.645L270.223 35.0267L284.929 37.984ZM313.729 37.984L328.429 40.9699L332.082 22.984H313.729V37.984ZM308.737 62.56L294.037 59.5741L290.384 77.56H308.737V62.56ZM328.449 62.56V77.56H340.708L343.149 65.5459L328.449 62.56ZM333.441 37.984V22.984H321.182L318.741 34.9981L333.441 37.984ZM362.241 37.984L376.947 40.9412L380.558 22.984H362.241V37.984ZM348.161 108V123H360.445L362.867 110.957L348.161 108ZM319.361 108L304.659 105.026L301.024 123H319.361V108ZM323.969 85.216L338.671 88.1895L342.306 70.216H323.969V85.216ZM304.257 85.216V70.216H291.987L289.555 82.2425L304.257 85.216ZM299.649 108V123H311.919L314.351 110.974L299.649 108ZM270.849 108L256.143 105.043L252.532 123H270.849V108ZM284.929 37.984V52.984H313.729V37.984V22.984H284.929V37.984ZM313.729 37.984L299.029 34.9981L294.037 59.5741L308.737 62.56L323.437 65.5459L328.429 40.9699L313.729 37.984ZM308.737 62.56V77.56H328.449V62.56V47.56H308.737V62.56ZM328.449 62.56L343.149 65.5459L348.141 40.9699L333.441 37.984L318.741 34.9981L313.749 59.5741L328.449 62.56ZM333.441 37.984V52.984H362.241V37.984V22.984H333.441V37.984ZM362.241 37.984L347.535 35.0267L333.455 105.043L348.161 108L362.867 110.957L376.947 40.9412L362.241 37.984ZM348.161 108V93H319.361V108V123H348.161V108ZM319.361 108L334.063 110.974L338.671 88.1895L323.969 85.216L309.267 82.2425L304.659 105.026L319.361 108ZM323.969 85.216V70.216H304.257V85.216V100.216H323.969V85.216ZM304.257 85.216L289.555 82.2425L284.947 105.026L299.649 108L314.351 110.974L318.959 88.1895L304.257 85.216ZM299.649 108V93H270.849V108V123H299.649V108ZM270.849 108L285.555 110.957L299.635 40.9412L284.929 37.984L270.223 35.0267L256.143 105.043L270.849 108ZM371.964 37.984V22.984H359.68L357.258 35.0267L371.964 37.984ZM400.764 37.984L415.43 41.131L419.324 22.984H400.764V37.984ZM393.98 69.6L379.314 66.453L368.32 117.691L404.76 80.0306L393.98 69.6ZM424.572 37.984V22.984H418.214L413.792 27.5534L424.572 37.984ZM451.58 37.984L466.286 40.9412L469.897 22.984H451.58V37.984ZM437.5 108V123H449.784L452.206 110.957L437.5 108ZM408.7 108L394.031 104.865L390.156 123H408.7V108ZM415.484 76.256L430.153 79.3909L441.173 27.8241L404.661 65.8698L415.484 76.256ZM385.02 108V123H391.415L395.843 118.386L385.02 108ZM357.884 108L343.178 105.043L339.567 123H357.884V108ZM371.964 37.984V52.984H400.764V37.984V22.984H371.964V37.984ZM400.764 37.984L386.098 34.837L379.314 66.453L393.98 69.6L408.646 72.747L415.43 41.131L400.764 37.984ZM393.98 69.6L404.76 80.0306L435.352 48.4146L424.572 37.984L413.792 27.5534L383.2 59.1694L393.98 69.6ZM424.572 37.984V52.984H451.58V37.984V22.984H424.572V37.984ZM451.58 37.984L436.874 35.0267L422.794 105.043L437.5 108L452.206 110.957L466.286 40.9412L451.58 37.984ZM437.5 108V93H408.7V108V123H437.5V108ZM408.7 108L423.369 111.135L430.153 79.3909L415.484 76.256L400.815 73.1211L394.031 104.865L408.7 108ZM415.484 76.256L404.661 65.8698L374.197 97.6138L385.02 108L395.843 118.386L426.307 86.6422L415.484 76.256ZM385.02 108V93H357.884V108V123H385.02V108ZM357.884 108L372.59 110.957L386.67 40.9412L371.964 37.984L357.258 35.0267L343.178 105.043L357.884 108ZM522.945 60.512V75.512H535.187L537.641 63.5179L522.945 60.512ZM501.313 60.512V45.512H488.944L486.588 57.6543L501.313 60.512ZM492.097 108V123H504.466L506.822 110.858L492.097 108ZM463.297 108L448.572 105.142L445.106 123H463.297V108ZM472.513 60.512L487.238 63.3697L490.704 45.512H472.513V60.512ZM451.393 60.512L436.697 57.5061L433.014 75.512H451.393V60.512ZM456.001 37.984V22.984H443.759L441.305 34.9781L456.001 37.984ZM527.553 37.984L542.249 40.9899L545.932 22.984H527.553V37.984ZM522.945 60.512V45.512H501.313V60.512V75.512H522.945V60.512ZM501.313 60.512L486.588 57.6543L477.372 105.142L492.097 108L506.822 110.858L516.038 63.3697L501.313 60.512ZM492.097 108V93H463.297V108V123H492.097V108ZM463.297 108L478.022 110.858L487.238 63.3697L472.513 60.512L457.788 57.6543L448.572 105.142L463.297 108ZM472.513 60.512V45.512H451.393V60.512V75.512H472.513V60.512ZM451.393 60.512L466.089 63.5179L470.697 40.9899L456.001 37.984L441.305 34.9781L436.697 57.5061L451.393 60.512ZM456.001 37.984V52.984H527.553V37.984V22.984H456.001V37.984ZM527.553 37.984L512.857 34.978L508.249 57.5061L522.945 60.512L537.641 63.5179L542.249 40.9899L527.553 37.984ZM595.582 79.712V94.712H607.408L610.168 83.2126L595.582 79.712ZM546.558 79.712V64.712H528.155L531.866 82.7368L546.558 79.712ZM550.782 85.984L558.278 72.9912L558.278 72.9912L550.782 85.984ZM575.23 83.04L587.599 74.5536L578.775 61.693L566.268 71.0118L575.23 83.04ZM587.262 100.576L595.697 112.98L608.153 104.51L599.631 92.0896L587.262 100.576ZM536.446 105.312L530.224 118.961L530.261 118.978L530.299 118.995L536.446 105.312ZM522.878 94.048L510.296 102.215L510.346 102.292L510.397 102.369L522.878 94.048ZM523.518 56.288L510.64 48.5969L510.624 48.6239L510.608 48.6509L523.518 56.288ZM538.878 41.952L545.793 55.2631L545.861 55.2279L545.928 55.192L538.878 41.952ZM580.606 40.672L573.983 54.1309L574.07 54.1734L574.157 54.2149L580.606 40.672ZM592.894 51.552L580.032 59.2694L580.063 59.3217L580.095 59.3737L592.894 51.552ZM552.318 58.976L561.629 70.7367L561.659 70.7129L561.688 70.689L552.318 58.976ZM547.71 65.76L533.565 60.7677L526.509 80.76H547.71V65.76ZM570.622 65.76V80.76H585.622V65.76H570.622ZM567.806 58.976L557.716 70.0751L557.857 70.2035L558.002 70.3283L567.806 58.976ZM597.118 67.552H582.118C582.118 70.0595 581.783 72.9319 580.996 76.2114L595.582 79.712L610.168 83.2126C611.429 77.9588 612.118 72.7245 612.118 67.552H597.118ZM595.582 79.712V64.712H546.558V79.712V94.712H595.582V79.712ZM546.558 79.712L531.866 82.7368C533.179 89.1113 536.759 95.2108 543.286 98.9768L550.782 85.984L558.278 72.9912C559.114 73.4734 559.91 74.1964 560.504 75.077C561.065 75.9106 561.222 76.5537 561.25 76.6872L546.558 79.712ZM550.782 85.984L543.286 98.9768C548.686 102.092 554.727 102.904 559.998 102.904V87.904V72.904C558.819 72.904 558.126 72.8052 557.809 72.7393C557.495 72.6738 557.737 72.6795 558.278 72.9912L550.782 85.984ZM559.998 87.904V102.904C568.793 102.904 577.066 100.378 584.192 95.0682L575.23 83.04L566.268 71.0118C564.69 72.1877 562.809 72.904 559.998 72.904V87.904ZM575.23 83.04L562.861 91.5264L574.893 109.062L587.262 100.576L599.631 92.0896L587.599 74.5536L575.23 83.04ZM587.262 100.576L578.827 88.1721C573.139 92.0402 565.986 94.28 556.67 94.28V109.28V124.28C571.076 124.28 584.318 120.717 595.697 112.98L587.262 100.576ZM556.67 109.28V94.28C550.824 94.28 546.237 93.2665 542.593 91.6295L536.446 105.312L530.299 118.995C538.431 122.648 547.326 124.28 556.67 124.28V109.28ZM536.446 105.312L542.668 91.6634C539.168 90.0676 536.912 88.0577 535.359 85.7275L522.878 94.048L510.397 102.369C515.329 109.766 522.119 115.266 530.224 118.961L536.446 105.312ZM522.878 94.048L535.46 85.8809C534.084 83.7615 533.142 80.9651 533.142 76.896H518.142H503.142C503.142 85.9682 505.357 94.6065 510.296 102.215L522.878 94.048ZM518.142 76.896H533.142C533.142 71.6506 534.335 67.4632 536.428 63.9251L523.518 56.288L510.608 48.6509C505.533 57.2301 503.142 66.7814 503.142 76.896H518.142ZM523.518 56.288L536.396 63.9791C538.587 60.3112 541.603 57.4396 545.793 55.2631L538.878 41.952L531.963 28.6409C523.012 33.291 515.788 39.9768 510.64 48.5969L523.518 56.288ZM538.878 41.952L545.928 55.192C550.029 53.0082 555.097 51.704 561.534 51.704V36.704V21.704C550.905 21.704 540.868 23.8985 531.828 28.7119L538.878 41.952ZM561.534 36.704V51.704C567.083 51.704 571.079 52.7018 573.983 54.1309L580.606 40.672L587.229 27.2131C579.381 23.3515 570.662 21.704 561.534 21.704V36.704ZM580.606 40.672L574.157 54.2149C577.113 55.6227 578.867 57.3292 580.032 59.2694L592.894 51.552L605.756 43.8346C601.289 36.3881 594.851 30.8413 587.055 27.1291L580.606 40.672ZM592.894 51.552L580.095 59.3737C581.301 61.3483 582.118 63.9079 582.118 67.552H597.118H612.118C612.118 59.0787 610.119 50.9717 605.693 43.7302L592.894 51.552ZM560.254 56.416V41.416C554.247 41.416 548.145 43.1053 542.948 47.263L552.318 58.976L561.688 70.689C561.31 70.9917 560.884 71.2099 560.507 71.3316C560.155 71.4452 560.03 71.416 560.254 71.416V56.416ZM552.318 58.976L543.007 47.2153C538.373 50.884 535.36 55.681 533.565 60.7677L547.71 65.76L561.855 70.7523C561.991 70.3672 562.078 70.2573 562.038 70.3162C562.019 70.3452 561.974 70.4062 561.9 70.4862C561.826 70.5668 561.734 70.6529 561.629 70.7367L552.318 58.976ZM547.71 65.76V80.76H570.622V65.76V50.76H547.71V65.76ZM570.622 65.76H585.622C585.622 59.3166 583.359 52.5883 577.61 47.6236L567.806 58.976L558.002 70.3283C557.197 69.6333 556.502 68.6942 556.064 67.6387C555.65 66.6422 555.622 65.9243 555.622 65.76H570.622ZM567.806 58.976L577.896 47.8769C572.627 43.0864 566.192 41.416 560.254 41.416V56.416V71.416C560.494 71.416 560.247 71.4493 559.694 71.262C559.095 71.0588 558.376 70.6748 557.716 70.0751L567.806 58.976Z" fill="#C5191C" mask="url(#path-1-outside-1_107_47)"/>
</g>
<defs>
<filter id="filter0_d_107_47" x="0.0703125" y="0.968018" width="616.048" height="132.72" filterUnits="userSpaceOnUse" color-interpolation-filters="sRGB">
<feFlood flood-opacity="0" result="BackgroundImageFix"/>
<feColorMatrix in="SourceAlpha" type="matrix" values="0 0 0 0 0 0 0 0 0 0 0 0 0 0 0 0 0 0 127 0" result="hardAlpha"/>
<feOffset dy="4"/>
<feGaussianBlur stdDeviation="2"/>
<feComposite in2="hardAlpha" operator="out"/>
<feColorMatrix type="matrix" values="0 0 0 0 0 0 0 0 0 0 0 0 0 0 0 0 0 0 0.25 0"/>
<feBlend mode="normal" in2="BackgroundImageFix" result="effect1_dropShadow_107_47"/>
<feBlend mode="normal" in="SourceGraphic" in2="effect1_dropShadow_107_47" result="shape"/>
</filter>
</defs>
</svg>
