<svg width="713" height="146" viewBox="0 0 713 146" fill="none" xmlns="http://www.w3.org/2000/svg">
<g filter="url(#filter0_d_107_48)">
<mask id="path-1-outside-1_107_48" maskUnits="userSpaceOnUse" x="4" y="0" width="705" height="138" fill="black">
<rect fill="white" x="4" width="705" height="138"/>
<path d="M125.208 81.576H136.984L128.792 122.536H101.144L104.6 105H53.656L50.2 122.536H22.552L30.744 81.576H32.28C37.4853 81.576 42.0507 78.0347 45.976 70.952C49.9013 63.8693 53.3573 54.056 56.344 41.512L62.616 15.4H138.392L125.208 81.576ZM81.688 46.376C79.5547 55.2507 77.5493 62.4613 75.672 68.008C73.7947 73.5547 71.576 78.0773 69.016 81.576H95.512L104.088 38.824H83.48L81.688 46.376ZM219.068 64.552C219.068 68.392 218.556 72.4453 217.532 76.712H168.508C169.105 79.6133 170.513 81.704 172.732 82.984C174.951 84.264 178.023 84.904 181.948 84.904C187.751 84.904 192.828 83.2827 197.18 80.04L209.212 97.576C200.679 103.379 190.481 106.28 178.62 106.28C171.025 106.28 164.284 104.957 158.396 102.312C152.593 99.6667 148.071 95.912 144.828 91.048C141.671 86.184 140.092 80.4667 140.092 73.896C140.092 66.216 141.884 59.3467 145.468 53.288C149.137 47.144 154.257 42.3653 160.828 38.952C167.399 35.4533 174.951 33.704 183.484 33.704C190.823 33.704 197.18 35.0267 202.556 37.672C207.932 40.232 212.028 43.8587 214.844 48.552C217.66 53.16 219.068 58.4933 219.068 64.552ZM182.204 53.416C179.047 53.416 176.401 54.2693 174.268 55.976C172.22 57.5973 170.684 59.8587 169.66 62.76H192.572C192.572 59.8587 191.633 57.5973 189.756 55.976C187.879 54.2693 185.361 53.416 182.204 53.416ZM305.783 34.984L291.831 105H262.903L272.503 57.512H259.191L257.015 66.6C254.455 77.2667 251.81 85.4587 249.079 91.176C246.348 96.8933 243.063 100.947 239.223 103.336C235.468 105.725 230.604 106.92 224.631 106.92C220.364 106.92 215.799 106.28 210.935 105L216.823 81.576C218.53 81.7467 219.554 81.832 219.895 81.832C223.052 81.832 225.484 80.6373 227.191 78.248C228.898 75.7733 230.476 71.5067 231.927 65.448L239.095 34.984H305.783ZM315.679 34.984H344.479L337.695 66.6L368.287 34.984H395.295L381.215 105H352.415L359.199 73.256L328.735 105H301.599L315.679 34.984ZM466.66 57.512H445.028L435.812 105H407.012L416.228 57.512H395.108L399.716 34.984H471.268L466.66 57.512ZM540.833 64.552C540.833 68.392 540.321 72.4453 539.297 76.712H490.273C490.87 79.6133 492.278 81.704 494.497 82.984C496.716 84.264 499.788 84.904 503.713 84.904C509.516 84.904 514.593 83.2827 518.945 80.04L530.977 97.576C522.444 103.379 512.246 106.28 500.385 106.28C492.79 106.28 486.049 104.957 480.161 102.312C474.358 99.6667 469.836 95.912 466.593 91.048C463.436 86.184 461.857 80.4667 461.857 73.896C461.857 66.216 463.649 59.3467 467.233 53.288C470.902 47.144 476.022 42.3653 482.593 38.952C489.164 35.4533 496.716 33.704 505.249 33.704C512.588 33.704 518.945 35.0267 524.321 37.672C529.697 40.232 533.793 43.8587 536.609 48.552C539.425 53.16 540.833 58.4933 540.833 64.552ZM503.969 53.416C500.812 53.416 498.166 54.2693 496.033 55.976C493.985 57.5973 492.449 59.8587 491.425 62.76H514.337C514.337 59.8587 513.398 57.5973 511.521 55.976C509.644 54.2693 507.126 53.416 503.969 53.416ZM578.78 106.28C571.185 106.28 564.487 104.957 558.684 102.312C552.967 99.5813 548.529 95.784 545.372 90.92C542.215 86.056 540.636 80.3813 540.636 73.896C540.636 66.3013 542.513 59.4747 546.268 53.416C550.023 47.272 555.271 42.4507 562.012 38.952C568.753 35.4533 576.348 33.704 584.796 33.704C593.073 33.704 600.284 35.5387 606.428 39.208C612.657 42.8773 617.009 47.8693 619.484 54.184L594.908 65.448C592.689 59.4747 588.849 56.488 583.388 56.488C579.463 56.488 576.22 57.9387 573.66 60.84C571.185 63.7413 569.948 67.496 569.948 72.104C569.948 75.5173 570.887 78.2907 572.764 80.424C574.727 82.472 577.457 83.496 580.956 83.496C583.857 83.496 586.332 82.8133 588.38 81.448C590.513 79.9973 592.391 77.6933 594.012 74.536L615.132 86.824C611.633 93.0533 606.727 97.8747 600.412 101.288C594.183 104.616 586.972 106.28 578.78 106.28ZM667.603 56.104C675.966 56.104 682.366 57.896 686.803 61.48C691.24 64.9787 693.459 70.0987 693.459 76.84C693.459 82.472 691.923 87.4213 688.851 91.688C685.864 95.9547 681.555 99.24 675.923 101.544C670.376 103.848 663.891 105 656.467 105H614.867L628.819 34.984H657.619L653.395 56.104H667.603ZM656.467 85.544C658.856 85.544 660.734 84.8613 662.099 83.496C663.55 82.1307 664.275 80.2533 664.275 77.864C664.275 74.6213 662.526 73 659.027 73H650.067L647.507 85.544H656.467Z"/>
</mask>
<path d="M125.208 81.576H136.984L128.792 122.536H101.144L104.6 105H53.656L50.2 122.536H22.552L30.744 81.576H32.28C37.4853 81.576 42.0507 78.0347 45.976 70.952C49.9013 63.8693 53.3573 54.056 56.344 41.512L62.616 15.4H138.392L125.208 81.576ZM81.688 46.376C79.5547 55.2507 77.5493 62.4613 75.672 68.008C73.7947 73.5547 71.576 78.0773 69.016 81.576H95.512L104.088 38.824H83.48L81.688 46.376ZM219.068 64.552C219.068 68.392 218.556 72.4453 217.532 76.712H168.508C169.105 79.6133 170.513 81.704 172.732 82.984C174.951 84.264 178.023 84.904 181.948 84.904C187.751 84.904 192.828 83.2827 197.18 80.04L209.212 97.576C200.679 103.379 190.481 106.28 178.62 106.28C171.025 106.28 164.284 104.957 158.396 102.312C152.593 99.6667 148.071 95.912 144.828 91.048C141.671 86.184 140.092 80.4667 140.092 73.896C140.092 66.216 141.884 59.3467 145.468 53.288C149.137 47.144 154.257 42.3653 160.828 38.952C167.399 35.4533 174.951 33.704 183.484 33.704C190.823 33.704 197.18 35.0267 202.556 37.672C207.932 40.232 212.028 43.8587 214.844 48.552C217.66 53.16 219.068 58.4933 219.068 64.552ZM182.204 53.416C179.047 53.416 176.401 54.2693 174.268 55.976C172.22 57.5973 170.684 59.8587 169.66 62.76H192.572C192.572 59.8587 191.633 57.5973 189.756 55.976C187.879 54.2693 185.361 53.416 182.204 53.416ZM305.783 34.984L291.831 105H262.903L272.503 57.512H259.191L257.015 66.6C254.455 77.2667 251.81 85.4587 249.079 91.176C246.348 96.8933 243.063 100.947 239.223 103.336C235.468 105.725 230.604 106.92 224.631 106.92C220.364 106.92 215.799 106.28 210.935 105L216.823 81.576C218.53 81.7467 219.554 81.832 219.895 81.832C223.052 81.832 225.484 80.6373 227.191 78.248C228.898 75.7733 230.476 71.5067 231.927 65.448L239.095 34.984H305.783ZM315.679 34.984H344.479L337.695 66.6L368.287 34.984H395.295L381.215 105H352.415L359.199 73.256L328.735 105H301.599L315.679 34.984ZM466.66 57.512H445.028L435.812 105H407.012L416.228 57.512H395.108L399.716 34.984H471.268L466.66 57.512ZM540.833 64.552C540.833 68.392 540.321 72.4453 539.297 76.712H490.273C490.87 79.6133 492.278 81.704 494.497 82.984C496.716 84.264 499.788 84.904 503.713 84.904C509.516 84.904 514.593 83.2827 518.945 80.04L530.977 97.576C522.444 103.379 512.246 106.28 500.385 106.28C492.79 106.28 486.049 104.957 480.161 102.312C474.358 99.6667 469.836 95.912 466.593 91.048C463.436 86.184 461.857 80.4667 461.857 73.896C461.857 66.216 463.649 59.3467 467.233 53.288C470.902 47.144 476.022 42.3653 482.593 38.952C489.164 35.4533 496.716 33.704 505.249 33.704C512.588 33.704 518.945 35.0267 524.321 37.672C529.697 40.232 533.793 43.8587 536.609 48.552C539.425 53.16 540.833 58.4933 540.833 64.552ZM503.969 53.416C500.812 53.416 498.166 54.2693 496.033 55.976C493.985 57.5973 492.449 59.8587 491.425 62.76H514.337C514.337 59.8587 513.398 57.5973 511.521 55.976C509.644 54.2693 507.126 53.416 503.969 53.416ZM578.78 106.28C571.185 106.28 564.487 104.957 558.684 102.312C552.967 99.5813 548.529 95.784 545.372 90.92C542.215 86.056 540.636 80.3813 540.636 73.896C540.636 66.3013 542.513 59.4747 546.268 53.416C550.023 47.272 555.271 42.4507 562.012 38.952C568.753 35.4533 576.348 33.704 584.796 33.704C593.073 33.704 600.284 35.5387 606.428 39.208C612.657 42.8773 617.009 47.8693 619.484 54.184L594.908 65.448C592.689 59.4747 588.849 56.488 583.388 56.488C579.463 56.488 576.22 57.9387 573.66 60.84C571.185 63.7413 569.948 67.496 569.948 72.104C569.948 75.5173 570.887 78.2907 572.764 80.424C574.727 82.472 577.457 83.496 580.956 83.496C583.857 83.496 586.332 82.8133 588.38 81.448C590.513 79.9973 592.391 77.6933 594.012 74.536L615.132 86.824C611.633 93.0533 606.727 97.8747 600.412 101.288C594.183 104.616 586.972 106.28 578.78 106.28ZM667.603 56.104C675.966 56.104 682.366 57.896 686.803 61.48C691.24 64.9787 693.459 70.0987 693.459 76.84C693.459 82.472 691.923 87.4213 688.851 91.688C685.864 95.9547 681.555 99.24 675.923 101.544C670.376 103.848 663.891 105 656.467 105H614.867L628.819 34.984H657.619L653.395 56.104H667.603ZM656.467 85.544C658.856 85.544 660.734 84.8613 662.099 83.496C663.55 82.1307 664.275 80.2533 664.275 77.864C664.275 74.6213 662.526 73 659.027 73H650.067L647.507 85.544H656.467Z" fill="white"/>
<path d="M125.208 81.576L110.497 78.6452L106.925 96.576H125.208V81.576ZM136.984 81.576L151.693 84.5177L155.281 66.576H136.984V81.576ZM128.792 122.536V137.536H141.089L143.501 125.478L128.792 122.536ZM101.144 122.536L86.4271 119.636L82.8993 137.536H101.144V122.536ZM104.6 105L119.317 107.9L122.845 90H104.6V105ZM53.656 105V90H41.3237L38.9391 102.1L53.656 105ZM50.2 122.536V137.536H62.5323L64.9169 125.436L50.2 122.536ZM22.552 122.536L7.84329 119.594L4.25494 137.536H22.552V122.536ZM30.744 81.576V66.576H18.4469L16.0353 78.6343L30.744 81.576ZM45.976 70.952L59.0958 78.2232L59.0958 78.2232L45.976 70.952ZM56.344 41.512L41.7588 38.0087L41.7554 38.0232L41.7519 38.0377L56.344 41.512ZM62.616 15.4V0.399994H50.7923L48.0308 11.8967L62.616 15.4ZM138.392 15.4L153.103 18.3308L156.675 0.399994H138.392V15.4ZM81.688 46.376L96.2725 49.8819L96.2777 49.8605L96.2827 49.8392L81.688 46.376ZM75.672 68.008L61.4638 63.1991L61.4638 63.1991L75.672 68.008ZM69.016 81.576L56.9105 72.7183L39.4537 96.576H69.016V81.576ZM95.512 81.576V96.576H107.802L110.219 84.5262L95.512 81.576ZM104.088 38.824L118.795 41.7742L122.396 23.824H104.088V38.824ZM83.48 38.824V23.824H71.6228L68.8853 35.3608L83.48 38.824ZM125.208 81.576V96.576H136.984V81.576V66.576H125.208V81.576ZM136.984 81.576L122.275 78.6343L114.083 119.594L128.792 122.536L143.501 125.478L151.693 84.5177L136.984 81.576ZM128.792 122.536V107.536H101.144V122.536V137.536H128.792V122.536ZM101.144 122.536L115.861 125.436L119.317 107.9L104.6 105L89.8831 102.1L86.4271 119.636L101.144 122.536ZM104.6 105V90H53.656V105V120H104.6V105ZM53.656 105L38.9391 102.1L35.4831 119.636L50.2 122.536L64.9169 125.436L68.3729 107.9L53.656 105ZM50.2 122.536V107.536H22.552V122.536V137.536H50.2V122.536ZM22.552 122.536L37.2607 125.478L45.4527 84.5177L30.744 81.576L16.0353 78.6343L7.84329 119.594L22.552 122.536ZM30.744 81.576V96.576H32.28V81.576V66.576H30.744V81.576ZM32.28 81.576V96.576C45.568 96.576 54.1114 87.2168 59.0958 78.2232L45.976 70.952L32.8562 63.6808C31.5106 66.1088 30.5843 66.9359 30.4142 67.0678C30.3713 67.1011 30.5498 66.9557 30.9527 66.8097C31.3729 66.6574 31.8414 66.576 32.28 66.576V81.576ZM45.976 70.952L59.0958 78.2232C63.9535 69.4583 67.7966 58.1722 70.9361 44.9863L56.344 41.512L41.7519 38.0377C38.9181 49.9398 35.8492 58.2804 32.8562 63.6808L45.976 70.952ZM56.344 41.512L70.9292 45.0153L77.2012 18.9033L62.616 15.4L48.0308 11.8967L41.7588 38.0087L56.344 41.512ZM62.616 15.4V30.4H138.392V15.4V0.399994H62.616V15.4ZM138.392 15.4L123.681 12.4692L110.497 78.6452L125.208 81.576L139.919 84.5068L153.103 18.3308L138.392 15.4ZM81.688 46.376L67.1035 42.8701C65.0246 51.5183 63.1396 58.2478 61.4638 63.1991L75.672 68.008L89.8802 72.8169C91.9591 66.6749 94.0848 58.983 96.2725 49.8819L81.688 46.376ZM75.672 68.008L61.4638 63.1991C59.9168 67.7695 58.3135 70.801 56.9105 72.7183L69.016 81.576L81.1215 90.4336C84.8385 85.3537 87.6725 79.3398 89.8802 72.8169L75.672 68.008ZM69.016 81.576V96.576H95.512V81.576V66.576H69.016V81.576ZM95.512 81.576L110.219 84.5262L118.795 41.7742L104.088 38.824L89.381 35.8738L80.805 78.6258L95.512 81.576ZM104.088 38.824V23.824H83.48V38.824V53.824H104.088V38.824ZM83.48 38.824L68.8853 35.3608L67.0933 42.9128L81.688 46.376L96.2827 49.8392L98.0747 42.2872L83.48 38.824ZM217.532 76.712V91.712H229.358L232.118 80.2126L217.532 76.712ZM168.508 76.712V61.712H150.105L153.816 79.7368L168.508 76.712ZM172.732 82.984L180.228 69.9912L180.228 69.9912L172.732 82.984ZM197.18 80.04L209.549 71.5536L200.725 58.693L188.218 68.0118L197.18 80.04ZM209.212 97.576L217.647 109.98L230.103 101.51L221.581 89.0896L209.212 97.576ZM158.396 102.312L152.174 115.961L152.211 115.978L152.249 115.995L158.396 102.312ZM144.828 91.048L132.246 99.2151L132.296 99.2921L132.347 99.3685L144.828 91.048ZM145.468 53.288L132.59 45.5969L132.574 45.6239L132.558 45.6509L145.468 53.288ZM160.828 38.952L167.743 52.2631L167.811 52.2279L167.878 52.192L160.828 38.952ZM202.556 37.672L195.933 51.1309L196.02 51.1734L196.107 51.2149L202.556 37.672ZM214.844 48.552L201.982 56.2694L202.013 56.3217L202.045 56.3737L214.844 48.552ZM174.268 55.976L183.579 67.7367L183.609 67.7129L183.638 67.689L174.268 55.976ZM169.66 62.76L155.515 57.7677L148.459 77.76H169.66V62.76ZM192.572 62.76V77.76H207.572V62.76H192.572ZM189.756 55.976L179.666 67.0751L179.807 67.2035L179.952 67.3283L189.756 55.976ZM219.068 64.552H204.068C204.068 67.0595 203.733 69.9319 202.946 73.2114L217.532 76.712L232.118 80.2126C233.379 74.9588 234.068 69.7245 234.068 64.552H219.068ZM217.532 76.712V61.712H168.508V76.712V91.712H217.532V76.712ZM168.508 76.712L153.816 79.7368C155.129 86.1113 158.709 92.2108 165.236 95.9768L172.732 82.984L180.228 69.9912C181.064 70.4734 181.861 71.1964 182.454 72.077C183.015 72.9106 183.172 73.5537 183.2 73.6872L168.508 76.712ZM172.732 82.984L165.236 95.9768C170.636 99.0923 176.677 99.904 181.948 99.904V84.904V69.904C180.769 69.904 180.076 69.8052 179.759 69.7393C179.445 69.6738 179.687 69.6795 180.228 69.9912L172.732 82.984ZM181.948 84.904V99.904C190.743 99.904 199.016 97.3776 206.142 92.0682L197.18 80.04L188.218 68.0118C186.64 69.1877 184.759 69.904 181.948 69.904V84.904ZM197.18 80.04L184.811 88.5264L196.843 106.062L209.212 97.576L221.581 89.0896L209.549 71.5536L197.18 80.04ZM209.212 97.576L200.777 85.1721C195.089 89.0402 187.936 91.28 178.62 91.28V106.28V121.28C193.026 121.28 206.268 117.717 217.647 109.98L209.212 97.576ZM178.62 106.28V91.28C172.774 91.28 168.187 90.2665 164.543 88.6295L158.396 102.312L152.249 115.995C160.381 119.648 169.276 121.28 178.62 121.28V106.28ZM158.396 102.312L164.618 88.6634C161.118 87.0676 158.862 85.0577 157.309 82.7275L144.828 91.048L132.347 99.3685C137.279 106.766 144.069 112.266 152.174 115.961L158.396 102.312ZM144.828 91.048L157.41 82.8809C156.034 80.7615 155.092 77.9651 155.092 73.896H140.092H125.092C125.092 82.9682 127.307 91.6065 132.246 99.2151L144.828 91.048ZM140.092 73.896H155.092C155.092 68.6506 156.285 64.4632 158.378 60.9251L145.468 53.288L132.558 45.6509C127.483 54.2301 125.092 63.7814 125.092 73.896H140.092ZM145.468 53.288L158.346 60.9791C160.537 57.3112 163.553 54.4396 167.743 52.2631L160.828 38.952L153.913 25.6409C144.962 30.291 137.738 36.9768 132.59 45.5969L145.468 53.288ZM160.828 38.952L167.878 52.192C171.979 50.0082 177.047 48.704 183.484 48.704V33.704V18.704C172.855 18.704 162.818 20.8985 153.778 25.7119L160.828 38.952ZM183.484 33.704V48.704C189.033 48.704 193.029 49.7018 195.933 51.1309L202.556 37.672L209.179 24.2131C201.331 20.3515 192.612 18.704 183.484 18.704V33.704ZM202.556 37.672L196.107 51.2149C199.063 52.6227 200.817 54.3292 201.982 56.2694L214.844 48.552L227.706 40.8346C223.239 33.3881 216.801 27.8413 209.005 24.1291L202.556 37.672ZM214.844 48.552L202.045 56.3737C203.251 58.3483 204.068 60.9079 204.068 64.552H219.068H234.068C234.068 56.0787 232.069 47.9717 227.643 40.7302L214.844 48.552ZM182.204 53.416V38.416C176.197 38.416 170.095 40.1053 164.898 44.263L174.268 55.976L183.638 67.689C183.26 67.9917 182.834 68.2099 182.457 68.3316C182.105 68.4452 181.98 68.416 182.204 68.416V53.416ZM174.268 55.976L164.957 44.2153C160.323 47.884 157.31 52.681 155.515 57.7677L169.66 62.76L183.805 67.7523C183.941 67.3672 184.028 67.2573 183.988 67.3162C183.969 67.3452 183.924 67.4062 183.85 67.4862C183.776 67.5668 183.684 67.6529 183.579 67.7367L174.268 55.976ZM169.66 62.76V77.76H192.572V62.76V47.76H169.66V62.76ZM192.572 62.76H207.572C207.572 56.3166 205.309 49.5883 199.56 44.6236L189.756 55.976L179.952 67.3283C179.147 66.6333 178.452 65.6942 178.014 64.6387C177.601 63.6422 177.572 62.9243 177.572 62.76H192.572ZM189.756 55.976L199.846 44.8769C194.577 40.0864 188.142 38.416 182.204 38.416V53.416V68.416C182.444 68.416 182.197 68.4493 181.644 68.262C181.045 68.0588 180.326 67.6748 179.666 67.0751L189.756 55.976ZM305.783 34.984L320.494 37.9154L324.067 19.984H305.783V34.984ZM291.831 105V120H304.137L306.542 107.931L291.831 105ZM262.903 105L248.2 102.028L244.567 120H262.903V105ZM272.503 57.512L287.206 60.4842L290.839 42.512H272.503V57.512ZM259.191 57.512V42.512H247.359L244.603 54.0192L259.191 57.512ZM257.015 66.6L271.601 70.1006L271.603 70.0928L257.015 66.6ZM249.079 91.176L262.614 97.6407L262.614 97.6407L249.079 91.176ZM239.223 103.336L231.298 90.6002L231.234 90.6403L231.17 90.6811L239.223 103.336ZM210.935 105L196.388 101.343L192.771 115.731L207.118 119.506L210.935 105ZM216.823 81.576L218.316 66.6504L205.432 65.3621L202.276 77.9193L216.823 81.576ZM227.191 78.248L239.397 86.9666L239.469 86.8659L239.539 86.764L227.191 78.248ZM231.927 65.448L246.515 68.9408L246.522 68.9122L246.528 68.8836L231.927 65.448ZM239.095 34.984V19.984H227.215L224.494 31.5484L239.095 34.984ZM305.783 34.984L291.072 32.0526L277.12 102.069L291.831 105L306.542 107.931L320.494 37.9154L305.783 34.984ZM291.831 105V90H262.903V105V120H291.831V105ZM262.903 105L277.606 107.972L287.206 60.4842L272.503 57.512L257.8 54.5398L248.2 102.028L262.903 105ZM272.503 57.512V42.512H259.191V57.512V72.512H272.503V57.512ZM259.191 57.512L244.603 54.0192L242.427 63.1072L257.015 66.6L271.603 70.0928L273.779 61.0048L259.191 57.512ZM257.015 66.6L242.429 63.0994C239.964 73.3695 237.609 80.3859 235.544 84.7113L249.079 91.176L262.614 97.6407C266.01 90.5314 268.946 81.1638 271.601 70.1006L257.015 66.6ZM249.079 91.176L235.544 84.7113C233.572 88.8386 231.918 90.2148 231.298 90.6002L239.223 103.336L247.148 116.072C254.208 111.679 259.124 104.948 262.614 97.6407L249.079 91.176ZM239.223 103.336L231.17 90.6811C230.514 91.0982 228.702 91.92 224.631 91.92V106.92V121.92C232.507 121.92 240.422 120.352 247.276 115.991L239.223 103.336ZM224.631 106.92V91.92C221.858 91.92 218.586 91.5027 214.752 90.4939L210.935 105L207.118 119.506C213.012 121.057 218.871 121.92 224.631 121.92V106.92ZM210.935 105L225.482 108.657L231.37 85.2327L216.823 81.576L202.276 77.9193L196.388 101.343L210.935 105ZM216.823 81.576L215.33 96.5016C216.648 96.6333 218.611 96.832 219.895 96.832V81.832V66.832C220.136 66.832 220.307 66.8388 220.359 66.841C220.427 66.8438 220.46 66.8461 220.447 66.8452C220.417 66.8433 220.315 66.8363 220.117 66.8198C219.723 66.787 219.133 66.7322 218.316 66.6504L216.823 81.576ZM219.895 81.832V96.832C227.469 96.832 234.635 93.6333 239.397 86.9666L227.191 78.248L214.985 69.5294C215.451 68.8774 216.278 68.06 217.473 67.4727C218.63 66.9046 219.559 66.832 219.895 66.832V81.832ZM227.191 78.248L239.539 86.764C242.915 81.8691 244.995 75.2884 246.515 68.9408L231.927 65.448L217.339 61.9552C216.706 64.5996 216.11 66.5749 215.587 67.9869C215.034 69.4825 214.724 69.9037 214.843 69.732L227.191 78.248ZM231.927 65.448L246.528 68.8836L253.696 38.4196L239.095 34.984L224.494 31.5484L217.326 62.0124L231.927 65.448ZM239.095 34.984V49.984H305.783V34.984V19.984H239.095V34.984ZM315.679 34.984V19.984H303.395L300.973 32.0267L315.679 34.984ZM344.479 34.984L359.145 38.131L363.039 19.984H344.479V34.984ZM337.695 66.6L323.029 63.453L312.035 114.691L348.475 77.0306L337.695 66.6ZM368.287 34.984V19.984H361.929L357.507 24.5534L368.287 34.984ZM395.295 34.984L410.001 37.9412L413.612 19.984H395.295V34.984ZM381.215 105V120H393.499L395.921 107.957L381.215 105ZM352.415 105L337.746 101.865L333.871 120H352.415V105ZM359.199 73.256L373.868 76.3909L384.888 24.8241L348.376 62.8698L359.199 73.256ZM328.735 105V120H335.13L339.558 115.386L328.735 105ZM301.599 105L286.893 102.043L283.282 120H301.599V105ZM315.679 34.984V49.984H344.479V34.984V19.984H315.679V34.984ZM344.479 34.984L329.813 31.837L323.029 63.453L337.695 66.6L352.361 69.747L359.145 38.131L344.479 34.984ZM337.695 66.6L348.475 77.0306L379.067 45.4146L368.287 34.984L357.507 24.5534L326.915 56.1694L337.695 66.6ZM368.287 34.984V49.984H395.295V34.984V19.984H368.287V34.984ZM395.295 34.984L380.589 32.0267L366.509 102.043L381.215 105L395.921 107.957L410.001 37.9412L395.295 34.984ZM381.215 105V90H352.415V105V120H381.215V105ZM352.415 105L367.084 108.135L373.868 76.3909L359.199 73.256L344.53 70.1211L337.746 101.865L352.415 105ZM359.199 73.256L348.376 62.8698L317.912 94.6138L328.735 105L339.558 115.386L370.022 83.6422L359.199 73.256ZM328.735 105V90H301.599V105V120H328.735V105ZM301.599 105L316.305 107.957L330.385 37.9412L315.679 34.984L300.973 32.0267L286.893 102.043L301.599 105ZM466.66 57.512V72.512H478.902L481.356 60.5179L466.66 57.512ZM445.028 57.512V42.512H432.659L430.303 54.6543L445.028 57.512ZM435.812 105V120H448.181L450.537 107.858L435.812 105ZM407.012 105L392.287 102.142L388.821 120H407.012V105ZM416.228 57.512L430.953 60.3697L434.419 42.512H416.228V57.512ZM395.108 57.512L380.412 54.5061L376.729 72.512H395.108V57.512ZM399.716 34.984V19.984H387.474L385.02 31.9781L399.716 34.984ZM471.268 34.984L485.964 37.9899L489.647 19.984H471.268V34.984ZM466.66 57.512V42.512H445.028V57.512V72.512H466.66V57.512ZM445.028 57.512L430.303 54.6543L421.087 102.142L435.812 105L450.537 107.858L459.753 60.3697L445.028 57.512ZM435.812 105V90H407.012V105V120H435.812V105ZM407.012 105L421.737 107.858L430.953 60.3697L416.228 57.512L401.503 54.6543L392.287 102.142L407.012 105ZM416.228 57.512V42.512H395.108V57.512V72.512H416.228V57.512ZM395.108 57.512L409.804 60.5179L414.412 37.9899L399.716 34.984L385.02 31.9781L380.412 54.5061L395.108 57.512ZM399.716 34.984V49.984H471.268V34.984V19.984H399.716V34.984ZM471.268 34.984L456.572 31.978L451.964 54.5061L466.66 57.512L481.356 60.5179L485.964 37.9899L471.268 34.984ZM539.297 76.712V91.712H551.123L553.883 80.2126L539.297 76.712ZM490.273 76.712V61.712H471.87L475.581 79.7368L490.273 76.712ZM494.497 82.984L501.993 69.9912L501.993 69.9912L494.497 82.984ZM518.945 80.04L531.314 71.5536L522.489 58.693L509.983 68.0118L518.945 80.04ZM530.977 97.576L539.412 109.98L551.868 101.51L543.346 89.0896L530.977 97.576ZM480.161 102.312L473.939 115.961L473.976 115.978L474.014 115.995L480.161 102.312ZM466.593 91.048L454.011 99.2151L454.061 99.2921L454.112 99.3685L466.593 91.048ZM467.233 53.288L454.355 45.5969L454.339 45.6239L454.323 45.6509L467.233 53.288ZM482.593 38.952L489.508 52.2631L489.576 52.2279L489.643 52.192L482.593 38.952ZM524.321 37.672L517.698 51.1309L517.785 51.1734L517.872 51.2149L524.321 37.672ZM536.609 48.552L523.747 56.2694L523.778 56.3217L523.81 56.3737L536.609 48.552ZM496.033 55.976L505.344 67.7367L505.374 67.7129L505.403 67.689L496.033 55.976ZM491.425 62.76L477.28 57.7677L470.224 77.76H491.425V62.76ZM514.337 62.76V77.76H529.337V62.76H514.337ZM511.521 55.976L501.431 67.0751L501.572 67.2035L501.717 67.3283L511.521 55.976ZM540.833 64.552H525.833C525.833 67.0595 525.498 69.9319 524.711 73.2114L539.297 76.712L553.883 80.2126C555.144 74.9588 555.833 69.7245 555.833 64.552H540.833ZM539.297 76.712V61.712H490.273V76.712V91.712H539.297V76.712ZM490.273 76.712L475.581 79.7368C476.894 86.1113 480.474 92.2108 487.001 95.9768L494.497 82.984L501.993 69.9912C502.829 70.4734 503.625 71.1964 504.219 72.077C504.78 72.9106 504.937 73.5537 504.965 73.6872L490.273 76.712ZM494.497 82.984L487.001 95.9768C492.401 99.0923 498.442 99.904 503.713 99.904V84.904V69.904C502.534 69.904 501.841 69.8052 501.524 69.7393C501.21 69.6738 501.452 69.6795 501.993 69.9912L494.497 82.984ZM503.713 84.904V99.904C512.508 99.904 520.781 97.3776 527.907 92.0682L518.945 80.04L509.983 68.0118C508.405 69.1877 506.524 69.904 503.713 69.904V84.904ZM518.945 80.04L506.576 88.5264L518.608 106.062L530.977 97.576L543.346 89.0896L531.314 71.5536L518.945 80.04ZM530.977 97.576L522.542 85.1721C516.854 89.0402 509.701 91.28 500.385 91.28V106.28V121.28C514.791 121.28 528.033 117.717 539.412 109.98L530.977 97.576ZM500.385 106.28V91.28C494.539 91.28 489.952 90.2665 486.308 88.6295L480.161 102.312L474.014 115.995C482.146 119.648 491.041 121.28 500.385 121.28V106.28ZM480.161 102.312L486.383 88.6634C482.883 87.0676 480.627 85.0577 479.074 82.7275L466.593 91.048L454.112 99.3685C459.044 106.766 465.834 112.266 473.939 115.961L480.161 102.312ZM466.593 91.048L479.175 82.8809C477.799 80.7615 476.857 77.9651 476.857 73.896H461.857H446.857C446.857 82.9682 449.072 91.6065 454.011 99.2151L466.593 91.048ZM461.857 73.896H476.857C476.857 68.6506 478.05 64.4632 480.143 60.9251L467.233 53.288L454.323 45.6509C449.248 54.2301 446.857 63.7814 446.857 73.896H461.857ZM467.233 53.288L480.111 60.9791C482.302 57.3112 485.318 54.4396 489.508 52.2631L482.593 38.952L475.678 25.6409C466.727 30.291 459.503 36.9768 454.355 45.5969L467.233 53.288ZM482.593 38.952L489.643 52.192C493.744 50.0082 498.812 48.704 505.249 48.704V33.704V18.704C494.62 18.704 484.583 20.8985 475.543 25.7119L482.593 38.952ZM505.249 33.704V48.704C510.798 48.704 514.794 49.7018 517.698 51.1309L524.321 37.672L530.944 24.2131C523.096 20.3515 514.377 18.704 505.249 18.704V33.704ZM524.321 37.672L517.872 51.2149C520.828 52.6227 522.582 54.3292 523.747 56.2694L536.609 48.552L549.471 40.8346C545.004 33.3881 538.566 27.8413 530.77 24.1291L524.321 37.672ZM536.609 48.552L523.81 56.3737C525.016 58.3483 525.833 60.9079 525.833 64.552H540.833H555.833C555.833 56.0787 553.834 47.9717 549.408 40.7302L536.609 48.552ZM503.969 53.416V38.416C497.962 38.416 491.86 40.1053 486.663 44.263L496.033 55.976L505.403 67.689C505.025 67.9917 504.599 68.2099 504.222 68.3316C503.87 68.4452 503.745 68.416 503.969 68.416V53.416ZM496.033 55.976L486.722 44.2153C482.088 47.884 479.075 52.681 477.28 57.7677L491.425 62.76L505.57 67.7523C505.706 67.3672 505.793 67.2573 505.753 67.3162C505.734 67.3452 505.689 67.4062 505.615 67.4862C505.541 67.5668 505.449 67.6529 505.344 67.7367L496.033 55.976ZM491.425 62.76V77.76H514.337V62.76V47.76H491.425V62.76ZM514.337 62.76H529.337C529.337 56.3166 527.074 49.5883 521.325 44.6236L511.521 55.976L501.717 67.3283C500.912 66.6333 500.217 65.6942 499.779 64.6387C499.365 63.6422 499.337 62.9243 499.337 62.76H514.337ZM511.521 55.976L521.611 44.8769C516.342 40.0864 509.907 38.416 503.969 38.416V53.416V68.416C504.209 68.416 503.962 68.4493 503.409 68.262C502.81 68.0588 502.091 67.6748 501.431 67.0751L511.521 55.976ZM558.684 102.312L552.219 115.847L552.34 115.905L552.462 115.961L558.684 102.312ZM545.372 90.92L532.79 99.0871L532.79 99.0871L545.372 90.92ZM546.268 53.416L559.018 61.3175L559.043 61.2777L559.067 61.2377L546.268 53.416ZM562.012 38.952L568.922 52.2658L568.922 52.2658L562.012 38.952ZM606.428 39.208L598.737 52.0861L598.776 52.1094L598.815 52.1325L606.428 39.208ZM619.484 54.184L625.734 67.82L638.623 61.9123L633.45 48.7109L619.484 54.184ZM594.908 65.448L580.847 70.6708L586.472 85.8151L601.158 79.084L594.908 65.448ZM573.66 60.84L562.412 50.9157L562.329 51.01L562.247 51.1058L573.66 60.84ZM572.764 80.424L561.503 90.3334L561.714 90.5726L561.934 90.8026L572.764 80.424ZM588.38 81.448L596.7 93.9288L596.758 93.8906L596.815 93.8519L588.38 81.448ZM594.012 74.536L601.555 61.5708L587.89 53.6202L580.668 67.6839L594.012 74.536ZM615.132 86.824L628.21 94.1694L635.445 81.2883L622.675 73.8588L615.132 86.824ZM600.412 101.288L607.48 114.518L607.513 114.501L607.545 114.484L600.412 101.288ZM578.78 106.28V91.28C572.928 91.28 568.418 90.2645 564.906 88.6634L558.684 102.312L552.462 115.961C560.555 119.65 569.443 121.28 578.78 121.28V106.28ZM558.684 102.312L565.149 88.7766C561.687 87.1233 559.468 85.0854 557.954 82.7529L545.372 90.92L532.79 99.0871C537.591 106.483 544.246 112.039 552.219 115.847L558.684 102.312ZM545.372 90.92L557.954 82.7529C556.557 80.6018 555.636 77.8372 555.636 73.896H540.636H525.636C525.636 82.9255 527.872 91.5102 532.79 99.0871L545.372 90.92ZM540.636 73.896H555.636C555.636 68.9025 556.831 64.846 559.018 61.3175L546.268 53.416L533.518 45.5145C528.195 54.1034 525.636 63.7002 525.636 73.896H540.636ZM546.268 53.416L559.067 61.2377C561.317 57.557 564.469 54.5769 568.922 52.2658L562.012 38.952L555.102 25.6382C546.073 30.3245 538.729 36.987 533.469 45.5942L546.268 53.416ZM562.012 38.952L568.922 52.2658C573.298 49.9947 578.479 48.704 584.796 48.704V33.704V18.704C574.217 18.704 564.209 20.9119 555.102 25.6382L562.012 38.952ZM584.796 33.704V48.704C590.796 48.704 595.262 50.0108 598.737 52.0861L606.428 39.208L614.119 26.3299C605.306 21.0665 595.351 18.704 584.796 18.704V33.704ZM606.428 39.208L598.815 52.1325C602.357 54.2189 604.352 56.6807 605.518 59.6571L619.484 54.184L633.45 48.7109C629.667 39.058 622.958 31.5358 614.041 26.2835L606.428 39.208ZM619.484 54.184L613.234 40.548L588.658 51.812L594.908 65.448L601.158 79.084L625.734 67.82L619.484 54.184ZM594.908 65.448L608.969 60.2252C607.184 55.4174 604.278 50.547 599.573 46.8877C594.699 43.0966 589.023 41.488 583.388 41.488V56.488V71.488C583.378 71.488 583.077 71.4849 582.594 71.3298C582.092 71.1684 581.587 70.9043 581.155 70.5683C580.29 69.8957 580.414 69.5053 580.847 70.6708L594.908 65.448ZM583.388 56.488V41.488C575.23 41.488 567.867 44.734 562.412 50.9157L573.66 60.84L584.908 70.7643C584.916 70.7548 584.853 70.8271 584.708 70.936C584.56 71.0472 584.366 71.166 584.137 71.2683C583.638 71.4917 583.313 71.488 583.388 71.488V56.488ZM573.66 60.84L562.247 51.1058C556.999 57.2589 554.948 64.7036 554.948 72.104H569.948H584.948C584.948 71.1369 585.078 70.6621 585.122 70.5268C585.155 70.428 585.144 70.4903 585.073 70.5742L573.66 60.84ZM569.948 72.104H554.948C554.948 78.395 556.752 84.9338 561.503 90.3334L572.764 80.424L584.025 70.5146C584.436 70.982 584.714 71.5016 584.86 71.9351C584.994 72.3302 584.948 72.4405 584.948 72.104H569.948ZM572.764 80.424L561.934 90.8026C567.361 96.4656 574.388 98.496 580.956 98.496V83.496V68.496C580.656 68.496 580.933 68.4514 581.551 68.6831C582.23 68.9378 582.975 69.3993 583.594 70.0454L572.764 80.424ZM580.956 83.496V98.496C586.279 98.496 591.774 97.2128 596.7 93.9288L588.38 81.448L580.059 68.9672C580.421 68.7262 580.763 68.5892 580.999 68.5241C581.217 68.4639 581.231 68.496 580.956 68.496V83.496ZM588.38 81.448L596.815 93.8519C601.656 90.5597 604.998 85.9792 607.355 81.3881L594.012 74.536L580.668 67.6839C580.247 68.5045 579.924 68.9555 579.759 69.1569C579.602 69.3505 579.645 69.2483 579.945 69.0441L588.38 81.448ZM594.012 74.536L586.469 87.5012L607.589 99.7892L615.132 86.824L622.675 73.8588L601.555 61.5708L594.012 74.536ZM615.132 86.824L602.054 79.4786C599.951 83.2227 597.111 86.0211 593.279 88.0924L600.412 101.288L607.545 114.484C616.342 109.728 623.316 102.884 628.21 94.1694L615.132 86.824ZM600.412 101.288L593.344 88.0577C589.614 90.0504 584.903 91.28 578.78 91.28V106.28V121.28C589.041 121.28 598.752 119.182 607.48 114.518L600.412 101.288ZM686.803 61.48L677.378 73.1491L677.446 73.2045L677.516 73.259L686.803 61.48ZM688.851 91.688L676.678 82.9234L676.62 83.0044L676.563 83.0861L688.851 91.688ZM675.923 101.544L670.244 87.6608L670.206 87.6761L670.169 87.6915L675.923 101.544ZM614.867 105L600.156 102.069L596.583 120H614.867V105ZM628.819 34.984V19.984H616.513L614.108 32.0526L628.819 34.984ZM657.619 34.984L672.328 37.9257L675.916 19.984H657.619V34.984ZM653.395 56.104L638.686 53.1623L635.098 71.104H653.395V56.104ZM662.099 83.496L651.819 72.573L651.653 72.7287L651.492 72.8894L662.099 83.496ZM650.067 73V58H637.819L635.37 70.0006L650.067 73ZM647.507 85.544L632.81 82.5446L629.137 100.544H647.507V85.544ZM667.603 56.104V71.104C674.083 71.104 676.605 72.5249 677.378 73.1491L686.803 61.48L696.228 49.8109C688.126 43.2671 677.849 41.104 667.603 41.104V56.104ZM686.803 61.48L677.516 73.259C677.81 73.4909 677.923 73.6571 678.032 73.9081C678.174 74.2366 678.459 75.1031 678.459 76.84H693.459H708.459C708.459 66.4943 704.847 56.6051 696.09 49.701L686.803 61.48ZM693.459 76.84H678.459C678.459 79.5634 677.778 81.3955 676.678 82.9234L688.851 91.688L701.024 100.453C706.068 93.4472 708.459 85.3806 708.459 76.84H693.459ZM688.851 91.688L676.563 83.0861C675.489 84.6201 673.669 86.2596 670.244 87.6608L675.923 101.544L681.602 115.427C689.441 112.22 696.24 107.289 701.139 100.29L688.851 91.688ZM675.923 101.544L670.169 87.6915C666.822 89.082 662.368 90 656.467 90V105V120C665.414 120 673.931 118.614 681.677 115.396L675.923 101.544ZM656.467 105V90H614.867V105V120H656.467V105ZM614.867 105L629.578 107.931L643.53 37.9154L628.819 34.984L614.108 32.0526L600.156 102.069L614.867 105ZM628.819 34.984V49.984H657.619V34.984V19.984H628.819V34.984ZM657.619 34.984L642.91 32.0423L638.686 53.1623L653.395 56.104L668.104 59.0457L672.328 37.9257L657.619 34.984ZM653.395 56.104V71.104H667.603V56.104V41.104H653.395V56.104ZM656.467 85.544V100.544C661.834 100.544 667.891 98.9175 672.706 94.1026L662.099 83.496L651.492 72.8894C652.414 71.9681 653.493 71.3162 654.541 70.9351C655.532 70.5747 656.247 70.544 656.467 70.544V85.544ZM662.099 83.496L672.379 94.419C677.435 89.6611 679.275 83.4979 679.275 77.864H664.275H649.275C649.275 77.5485 649.323 76.7337 649.739 75.658C650.177 74.5254 650.892 73.4448 651.819 72.573L662.099 83.496ZM664.275 77.864H679.275C679.275 73.6257 678.079 67.7737 673.159 63.2145C668.456 58.8548 662.817 58 659.027 58V73V88C658.735 88 655.721 87.9559 652.767 85.2175C649.597 82.2796 649.275 78.8596 649.275 77.864H664.275ZM659.027 73V58H650.067V73V88H659.027V73ZM650.067 73L635.37 70.0006L632.81 82.5446L647.507 85.544L662.204 88.5434L664.764 75.9994L650.067 73ZM647.507 85.544V100.544H656.467V85.544V70.544H647.507V85.544Z" fill="#C5191C" mask="url(#path-1-outside-1_107_48)"/>
</g>
<defs>
<filter id="filter0_d_107_48" x="0.254883" y="0.399902" width="712.204" height="145.136" filterUnits="userSpaceOnUse" color-interpolation-filters="sRGB">
<feFlood flood-opacity="0" result="BackgroundImageFix"/>
<feColorMatrix in="SourceAlpha" type="matrix" values="0 0 0 0 0 0 0 0 0 0 0 0 0 0 0 0 0 0 127 0" result="hardAlpha"/>
<feOffset dy="4"/>
<feGaussianBlur stdDeviation="2"/>
<feComposite in2="hardAlpha" operator="out"/>
<feColorMatrix type="matrix" values="0 0 0 0 0 0 0 0 0 0 0 0 0 0 0 0 0 0 0.25 0"/>
<feBlend mode="normal" in2="BackgroundImageFix" result="effect1_dropShadow_107_48"/>
<feBlend mode="normal" in="SourceGraphic" in2="effect1_dropShadow_107_48" result="shape"/>
</filter>
</defs>
</svg>
