<svg width="20" height="20" viewBox="0 0 20 20" fill="none" xmlns="http://www.w3.org/2000/svg">
<path d="M10 20C8.2 20 6.53333 19.55 5 18.65C3.46667 17.75 2.25 16.5333 1.35 15C0.45 13.4667 0 11.8 0 10C0 8.2 0.45 6.53333 1.35 5C2.25 3.45 3.46667 2.23333 5 1.35C6.53333 0.45 8.2 0 10 0C11.8 0 13.4667 0.45 15 1.35C16.55 2.23333 17.7667 3.45 18.65 5C19.55 6.53333 20 8.2 20 10C20 11.8 19.55 13.4667 18.65 15C17.7667 16.5333 16.55 17.75 15 18.65C13.4667 19.55 11.8 20 10 20ZM10 18C11.4833 18 12.8333 17.65 14.05 16.95C15.2833 16.25 16.25 15.2917 16.95 14.075C17.65 12.8417 18 11.4833 18 10C18 8.5167 17.65 7.16667 16.95 5.95C16.25 4.71667 15.2833 3.75 14.05 3.05C12.8333 2.35 11.4833 2 10 2C8.5167 2 7.15833 2.35 5.925 3.05C4.70833 3.75 3.75 4.71667 3.05 5.95C2.35 7.16667 2 8.5167 2 10C2 11.4833 2.35 12.8417 3.05 14.075C3.75 15.2917 4.70833 16.25 5.925 16.95C7.15833 17.65 8.5167 18 10 18ZM4.8 10.7C4.5 10.4 4.40833 10.0833 4.525 9.75C4.64167 9.4 4.875 9.1667 5.225 9.05C5.59167 8.9333 5.91667 9.0167 6.2 9.3L8.525 11.6L13.775 6.3C14.0917 6 14.4167 5.90833 14.75 6.025C15.1 6.14167 15.3333 6.38333 15.45 6.75C15.5833 7.1 15.5083 7.41667 15.225 7.7L9.25 13.7C9.0333 13.9167 8.7917 14.025 8.525 14.025C8.2583 14.025 8.0167 13.9167 7.8 13.7L4.8 10.7Z" fill="#3D3D40"/>
</svg>
